<?xml version="1.0" encoding="UTF-8" standalone="no"?>
<!-- Generator: Adobe Illustrator 16.0.0, SVG Export Plug-In . SVG Version: 6.00 Build 0)  -->

<svg
   xmlns:dc="http://purl.org/dc/elements/1.1/"
   xmlns:cc="http://creativecommons.org/ns#"
   xmlns:rdf="http://www.w3.org/1999/02/22-rdf-syntax-ns#"
   xmlns:svg="http://www.w3.org/2000/svg"
   xmlns="http://www.w3.org/2000/svg"
   xmlns:sodipodi="http://sodipodi.sourceforge.net/DTD/sodipodi-0.dtd"
   xmlns:inkscape="http://www.inkscape.org/namespaces/inkscape"
   version="1.1"
   x="0px"
   y="0px"
   width="100px"
   height="100px"
   viewBox="0 0 100 100"
   enable-background="new 0 0 100 100"
   xml:space="preserve"
   id="svg35"
   sodipodi:docname="avatar.svg"
   inkscape:version="0.92.5 (2060ec1f9f, 2020-04-08)"><metadata
     id="metadata41"><rdf:RDF><cc:Work
         rdf:about=""><dc:format>image/svg+xml</dc:format><dc:type
           rdf:resource="http://purl.org/dc/dcmitype/StillImage" /></cc:Work></rdf:RDF></metadata><defs
     id="defs39" /><sodipodi:namedview
     pagecolor="#ffffff"
     bordercolor="#666666"
     borderopacity="1"
     objecttolerance="10"
     gridtolerance="10"
     guidetolerance="10"
     inkscape:pageopacity="0"
     inkscape:pageshadow="2"
     inkscape:window-width="1366"
     inkscape:window-height="705"
     id="namedview37"
     showgrid="false"
     inkscape:zoom="2.36"
     inkscape:cx="-36.440678"
     inkscape:cy="50"
     inkscape:window-x="-8"
     inkscape:window-y="-8"
     inkscape:window-maximized="1"
     inkscape:current-layer="svg35" /><g
     id="Layer_2"><rect
       fill="#EA5106"
       width="100"
       height="100"
       id="rect2"
       style="fill:none" /></g><g
     id="Layer_1"
     transform="translate(12,2)"
     style="fill:#ffffff"><g
       id="g7"
       style="fill:#ffffff"><path
         d="m 70.34,92.562 m -9.572,-3.521 m 9.277,4.587 c 0.639,-2.152 1.066,-4.512 1.342,-6.916 1.178,0.276 2.498,-0.059 2.934,-1.394 0.33,-1.015 0.273,-2.123 0.229,-3.18 -0.07,-1.684 0.838,-3.246 1.092,-4.897 0.227,-1.459 0.422,-4.39 -1.135,-5.313 -0.051,-0.03 -0.107,-0.05 -0.16,-0.077 -0.518,-7.268 3.303,-25.662 -8.363,-24.823 -0.66,-2.534 -3.973,-4.347 -6.158,-5.094 -4.336,-1.481 -8.83,-1.653 -13.333,-1.118 -2.765,0.328 -6.008,1.906 -7.904,3.922 -1.361,1.445 -3.011,2.909 -4.658,4.024 -1.184,0.802 -3.089,0.807 -3.829,2.02 -0.113,0.185 -0.134,0.485 0,0.669 0.377,0.514 0.799,0.936 1.336,1.311 0.774,0.54 -2.617,1.001 -3.228,1.192 -0.312,0.098 -0.604,0.473 -0.462,0.815 0.484,1.178 1.544,1.992 2.706,2.466 -0.734,0.586 -1.754,0.804 -2.406,1.499 -0.264,0.281 -0.274,0.864 0.134,1.041 0.172,0.074 2.5,1.123 2.59,0.76 -0.306,1.226 -0.307,2.654 -0.449,3.916 -0.19,1.704 -0.231,3.401 -0.233,5.116 0,0.329 0.055,2.595 0.173,2.32 -0.034,0.08 -0.043,0.157 -0.049,0.233 -1.292,1.074 -1.123,3.743 -0.91,5.121 0.255,1.651 1.163,3.214 1.092,4.897 -0.044,1.057 -0.101,2.165 0.23,3.18 0.417,1.28 1.652,1.65 2.792,1.433 0.276,2.391 0.703,4.735 1.339,6.877 l 2.229,1.122 c -1.091,-1.706 -1.141,-5.098 -1.819,-7.104 -1.017,-8.285 -0.858,-16.373 0.398,-24.687 4.107,1.709 9.978,0.673 14.089,0.269 2.849,-0.28 5.828,-0.965 8.57,-2.12 2.086,4.544 6.6,7.49 11.725,7.782 0.543,6.184 0.461,12.297 -0.287,18.518 -0.02,0.042 -1.197,5.364 -1.211,5.412 m 3.264,-16.118 c -0.049,-1.08 -0.102,-2.141 -0.158,-3.197 0.107,-0.045 0.211,-0.11 0.293,-0.225 0.49,-0.673 0.91,-0.813 1.262,-0.646 0.074,0.119 0.189,0.208 0.324,0.264 0.768,0.887 1.09,3.322 0.928,3.992 -0.24,0.995 -0.502,1.963 -0.799,2.941 -0.27,0.895 -0.057,6.093 -2.035,5.547 0.267,-2.959 0.304,-5.946 0.185,-8.676 z m -38.443,8.695 c -1.821,0.252 -1.629,-4.693 -1.894,-5.565 -0.296,-0.979 -0.557,-1.946 -0.798,-2.941 -0.249,-1.022 0.63,-6.197 2.514,-3.61 0.045,0.062 0.101,0.102 0.155,0.143 -0.059,1.083 -0.113,2.172 -0.162,3.279 -0.122,2.733 -0.083,5.728 0.185,8.694 z"
         id="path5"
         inkscape:connector-curvature="0"
         style="fill:#ffffff" /></g></g><g
     id="Layer_3"
     transform="translate(12,2)"
     style="fill:#ffffff"><g
       id="g32"
       style="fill:#ffffff"><g
         id="g30"
         style="fill:#ffffff"><g
           id="g20"
           style="fill:#ffffff"><circle
             cx="9.5799999"
             cy="17.285999"
             r="9.1090002"
             id="circle10"
             style="fill:#ffffff" /><circle
             cx="17.58"
             cy="8.9020004"
             r="6.467"
             id="circle12"
             style="fill:#ffffff" /><circle
             cx="25.697001"
             cy="10.804"
             r="5.3850002"
             id="circle14"
             style="fill:#ffffff" /><circle
             cx="32.189999"
             cy="18.987"
             r="9.8929996"
             id="circle16"
             style="fill:#ffffff" /><circle
             cx="19.474001"
             cy="22.936001"
             r="9.8940001"
             id="circle18"
             style="fill:#ffffff" /></g><g
           id="g24"
           style="fill:#ffffff"><circle
             cx="24.191999"
             cy="35.855"
             r="2.99"
             id="circle22"
             style="fill:#ffffff" /></g><g
           id="g28"
           style="fill:#ffffff"><circle
             cx="28.094999"
             cy="39.671001"
             r="1.64"
             id="circle26"
             style="fill:#ffffff" /></g></g></g></g></svg>