<?xml version="1.0" encoding="UTF-8" standalone="no"?>
<svg
   xmlns:dc="http://purl.org/dc/elements/1.1/"
   xmlns:cc="http://creativecommons.org/ns#"
   xmlns:rdf="http://www.w3.org/1999/02/22-rdf-syntax-ns#"
   xmlns:svg="http://www.w3.org/2000/svg"
   xmlns="http://www.w3.org/2000/svg"
   xmlns:sodipodi="http://sodipodi.sourceforge.net/DTD/sodipodi-0.dtd"
   xmlns:inkscape="http://www.inkscape.org/namespaces/inkscape"
   version="1.1"
   id="Layer_1"
   x="0px"
   y="0px"
   viewBox="0 0 2963 2632"
   xml:space="preserve"
   sodipodi:docname="bg-pixel-down.svg"
   inkscape:version="1.0.2 (e86c870879, 2021-01-15)"
   width="2963"
   height="2632"><metadata
   id="metadata503"><rdf:RDF><cc:Work
       rdf:about=""><dc:format>image/svg+xml</dc:format><dc:type
         rdf:resource="http://purl.org/dc/dcmitype/StillImage" /><dc:title /></cc:Work></rdf:RDF></metadata><defs
   id="defs501"><linearGradient
     id="SVGID_00000090280735061035197900000018369050016770267541_"
     gradientUnits="userSpaceOnUse"
     x1="79.145897"
     y1="315.46869"
     x2="79.145897"
     y2="445.13681"
     gradientTransform="matrix(7.6205338,0,0,7.6205338,807.4429,-499.19237)"><stop
       offset="0"
       style="stop-color:#684484"
       id="stop50" /><stop
       offset="1"
       style="stop-color:#523E7A"
       id="stop52" /></linearGradient></defs><sodipodi:namedview
   pagecolor="#ffffff"
   bordercolor="#666666"
   borderopacity="1"
   objecttolerance="10"
   gridtolerance="10"
   guidetolerance="10"
   inkscape:pageopacity="0"
   inkscape:pageshadow="2"
   inkscape:window-width="1920"
   inkscape:window-height="1011"
   id="namedview499"
   showgrid="false"
   inkscape:zoom="1.1674541"
   inkscape:cx="1646.0108"
   inkscape:cy="280.40113"
   inkscape:window-x="0"
   inkscape:window-y="0"
   inkscape:window-maximized="1"
   inkscape:current-layer="layer6"
   inkscape:document-rotation="0"
   showguides="true"
   inkscape:guide-bbox="true"><sodipodi:guide
     position="1.5527344,-9.25"
     orientation="0,-1"
     id="guide1329" /><sodipodi:guide
     position="644.13668,1549.3022"
     orientation="1,0"
     id="guide1345" /></sodipodi:namedview>

<g
   inkscape:groupmode="layer"
   id="layer8"
   inkscape:label="Layer 8"
   style="display:inline"
   sodipodi:insensitive="true"><rect
     style="fill:#ffffff;fill-opacity:1;stroke:none;stroke-width:9.30442;stroke-opacity:1"
     id="rect1358"
     width="2972.8694"
     height="633.9043"
     x="2.1805508"
     y="8.8572407" /></g><g
   inkscape:groupmode="layer"
   id="layer6"
   inkscape:label="Layer 7"><path
     id="rect1331-3"
     style="display:inline;fill:none;fill-opacity:1;stroke:#ea5106;stroke-width:9.489;stroke-opacity:1"
     d="m -32.55667,1.6593494 2,659.3086006 H 2974.3144 V 1.6593494 h -923.082 c -19.543,27.2577996 -57.0929,44.8694996 -92.2871,36.3671996 -14.1577,-3.4157 -39.7967,-18.1916 -55.918,-36.3671996 h -83.2558 c 10.7231,14.6269996 20.249,40.0609326 7.653,52.4521456 -16.364,16.09811 -45.6524,6.062054 -67.9714,-11.057646 -36.2216,-27.7768 -92.3787,-14.7503 -77.959,40.3145 24.3154,92.780101 174.0719,120.412801 245.2656,171.959001 55.1655,39.9414 147.7152,129.8216 81.0743,201.3457 -56.099,60.2067 -157.6825,13.9588 -202.7657,-35.2032 -11.8631,-12.9404 -43.2606,-67.6604 -67.1308,-51.3593 -23.8269,16.2725 7.5404,58.8143 16.7324,73.3203 15.0945,23.8125 118.0152,168.3975 39.7695,149.2383 -63.3519,-15.5111 -73.9075,-105.9663 -91.9179,-156.8516 -22.1466,-62.6051 -67.7618,-131.9448 -117.4121,-176.3672 -58.44,-52.2929 -32.6889,21.3854 -51.4317,17.5938 -19.5183,-3.9497 -70.9055,-99.66059 -76.9531,-35.2168 -2.0826,12.4952 31.8058,115.62843 -7.6543,118.4316 -47.7802,3.39421 15.2341,-114.26904 -29.4469,-140.65244 -99.7606,-26.84267 -57.5888,185.44734 -53.8402,211.37124 15.0373,104.0258 -158.8605,208.7411 -201.9473,94.9921 -24.6455,-65.0324 63.9985,-127.7375 96.8164,-171.4707 15.7697,-20.9976 50.4687,-56.5005 36.0059,-85.8281 -15.2671,-30.9363 -62.4755,-23.9717 -85.9004,-7.2109 -21.529,15.3964 -76.6796,113.5334 -80.0547,28.1211 -1.7378,-43.9484 52.6505,-75.861 40.0117,-127.5508 -16.7609,-68.565501 -52.279,-17.0474 -96.6582,-34.4258 -58.0954,-22.7641 4.4957,-33.953401 7.3106,-69.945301 6.0323,-77.0966 -122.65222,-11.7339 -150.48632,-1.623 -73.7789,26.7999 -192.9721,76.724801 -257.6309,5.5742 -18.4214,-20.279 -27.7403,-40.5652 -27.1133,-59.9511996 z m 2224.28707,1.6934 c 25.4792,-0.5145 67.7985,12.7560996 81.6895,15.3143996 35.1157,6.4773 106.1532,-30.147 126.2891,14.7637 25.8664,57.6789 -61.9016,16.9618 -78.8204,24.6601 -15.3677,7.0087 -14.8376,28.7248 -34.873,30.3477 -21.6007,1.7522 -45.0817,-28.7825 -61.1387,-39.7266 -10.8004,-7.3392 -72.7168,-22.3768 -49.5937,-41.1483996 3.4999,-2.8433 9.3131,-4.0669 16.4472,-4.2109 z M 563.36128,59.911349 c 1.4268,-0.01 2.9364,0.2982 4.5567,0.9804 13.5435,5.6731 15.4393,32.0269 13.2851,49.793001 -1.2065,9.9962 -5.9175,28.1646 -16.0859,34.168 -16.8901,9.953 -41.3646,-8.8176 -49.709,-19.6036 -4.7539,-6.1471 -14.16,-17.6225 -3.5605,-28.724601 0.9191,-0.9766 1.895,-1.8241 2.9003,-2.5996 8.7611,-6.6929 20.2078,-6.7359 28.4375,-16.373 7.1861,-8.4101 12.4711,-17.5977 20.1758,-17.6406 z m 74.4981,19.9433 c 2.9035,0.081 5.7894,0.9773 8.5039,2.9102 19.9061,14.1613 -11.0155,48.071301 -28.2071,37.084001 -16.4156,-10.4911 1.9596,-40.488201 19.7032,-39.994201 z m 1696.80072,0.3203 c 13.1593,-0.3758 35.0084,9.3445 43.4336,13.3184 14.8648,7.023101 14.5481,4.64 18.9141,21.271501 3.4469,13.127 13.9752,49.0327 -11.2305,41.6504 -10.4126,-3.0591 -19.6201,-26.0388 -28.539,-33.0332 -10.3122,-8.0715 -24.6459,-9.7386 -30.3047,-23.1817 -6.2139,-14.785101 -1.2772,-19.768301 7.7265,-20.025401 z M 775.73828,123.59485 c 3.0178,0.04 5.5703,0.7364 7.4258,2.3145 -17.924,14.3335 -41.1194,23.5545 -60.0489,30.9941 -16.732,6.5779 -96.7872,52.9679 -105.2754,36.4512 -6.0321,-11.7195 42.557,-24.4304 49.336,-26.5273 21.7588,-6.7072 40.758,-13.6006 62.2441,-25.1192 11.4476,-6.1381 33.2411,-18.2874 46.3184,-18.1133 z m -296.69534,5.6465 c 5.1991,0.029 15.05304,2.8593 8.74804,11.9649 -5.01249,7.2378 -17.55235,5.9872 -22.92382,7.0644 -7.13803,1.4362 -10.54012,3.2469 -17.01758,9.1211 -10.97278,9.9387 -29.25748,20.5092 -40.3164,18.125 -4.92636,-1.0627 -7.75468,-4.8109 -8.63086,-9.6797 -2.85812,14.3765 -21.97494,29.3138 -34.19727,21.4864 -19.10179,-12.1935 8.8916,-50.8143 28.20899,-37.084 3.48986,2.4845 5.3568,5.6001 6.06054,8.9609 0.948,-6.5779 4.5525,-13.8021 11.01563,-19.2168 9.98163,-8.373 14.4332,-3.1869 19.35937,1.5957 4.29443,4.1506 8.96227,8.013 17.9961,2.3399 10.54176,-6.621 21.11238,-14.6778 31.69726,-14.6778 z m 1475.86716,3.5489 c 53.2799,0.3157 114.0938,53.4591 151.1758,85.8554 33.9237,29.6437 74.1102,122.8991 -3.7187,78.4766 -21.6297,-12.3516 -20.4666,-47.2226 -40.7891,-60.9531 -19.6189,-13.2562 -35.7704,-61.17796 -54.6999,-71.20276 -33.5071,-17.7518 -79.6917,-15.2088 -68.2278,-30.49654 3.2689,-4.35926 10.748,-1.7123 16.2597,-1.6796 z m -1169.65232,28.4199 c 7.5836,0.016 13.784,3.4648 17.2949,11.6211 21.7876,50.5695 -63.4373,108.0473 -87.3359,87.7246 -6.3196,-5.3715 -8.3454,-16.2148 -2.9453,-34.0957 8.6871,-28.7329 48.2132,-65.3038 72.9863,-65.25 z m -163.8574,45.3984 c 3.4214,0.094 6.3683,1.1476 7.8144,3.2481 -1.4793,-2.1399 -22.5043,31.1801 -26.1523,13.414 -2.2401,-10.8699 9.5944,-16.9017 18.3379,-16.6621 z m 361.02342,61.3301 c 1.2696,0.03 2.5507,0.1255 3.8379,0.2871 20.5954,2.5709 35.2004,21.3692 32.6152,41.9648 -2.5853,20.5954 -21.3694,35.2024 -41.96482,32.6172 -20.5954,-2.5853 -35.2024,-21.3712 -32.6172,-41.9668 2.4236,-19.3081 19.0854,-33.3523 38.12892,-32.9023 z m -147.02932,70.5977 c 4.4771,-0.01 9.0036,0.2675 13.5625,0.8398 58.3681,7.3248 99.7315,60.5642 92.3926,118.918 -7.3248,58.354 -60.564,99.733 -118.918,92.4082 -58.3538,-7.3247 -99.7171,-60.5662 -92.3925,-118.92 6.7525,-53.7949 52.5264,-93.1619 105.3554,-93.246 z"
     sodipodi:nodetypes="ccccccccaccscccccccccaccccccccccccccsccccccscccccccccccccscccccscccccccccccccccccccccccccsccccccccccscsssscccssc" /></g><g
   inkscape:groupmode="layer"
   id="layer9"
   inkscape:label="Layer 9"
   sodipodi:insensitive="true"><rect
     style="fill:#ffffff;fill-opacity:1;stroke:none;stroke-width:9.489;stroke-opacity:1"
     id="rect1379"
     width="3124.8821"
     height="65.205994"
     x="-132.91475"
     y="632.65338" /></g></svg>
