<?xml version="1.0" encoding="UTF-8" standalone="no"?>
<svg
   xmlns:dc="http://purl.org/dc/elements/1.1/"
   xmlns:cc="http://creativecommons.org/ns#"
   xmlns:rdf="http://www.w3.org/1999/02/22-rdf-syntax-ns#"
   xmlns:svg="http://www.w3.org/2000/svg"
   xmlns="http://www.w3.org/2000/svg"
   xmlns:sodipodi="http://sodipodi.sourceforge.net/DTD/sodipodi-0.dtd"
   xmlns:inkscape="http://www.inkscape.org/namespaces/inkscape"
   version="1.1"
   id="Layer_1"
   x="0px"
   y="0px"
   class="remove"
   width="155px"
   height="200px"
   viewBox="0 0 200 200"
   enable-background="new 0 0 200 200"
   xml:space="preserve"
   sodipodi:docname="g-s.svg"
   inkscape:version="0.92.1 r15371"><metadata
     id="metadata11"><rdf:RDF><cc:Work
         rdf:about=""><dc:format>image/svg+xml</dc:format><dc:type
           rdf:resource="http://purl.org/dc/dcmitype/StillImage" /><dc:title></dc:title></cc:Work></rdf:RDF></metadata><defs
     id="defs9" /><sodipodi:namedview
     pagecolor="#ffffff"
     bordercolor="#666666"
     borderopacity="1"
     objecttolerance="10"
     gridtolerance="10"
     guidetolerance="10"
     inkscape:pageopacity="0"
     inkscape:pageshadow="2"
     inkscape:window-width="1366"
     inkscape:window-height="739"
     id="namedview7"
     showgrid="false"
     inkscape:zoom="1.18"
     inkscape:cx="-20.381356"
     inkscape:cy="100"
     inkscape:window-x="0"
     inkscape:window-y="0"
     inkscape:window-maximized="1"
     inkscape:current-layer="Layer_1" /><g
     id="Layer_1_1_"
     transform="translate(0,43.870966)"><g
       id="isotipo"><path
         id="iso-up"
         width="50"
         height="50"
         d="m 129.539,21.112 -24.404,11.127 -43.43,19.804 -0.193,-0.43 C 60.915,38.295 67.773,24.991 79.9,17.161 c 1.568,-1.024 3.244,-1.951 4.878,-2.771 0.042,-0.014 0.072,-0.04 0.111,-0.054 0.056,-0.028 0.097,-0.041 0.153,-0.07 15.769,-7.221 33.437,-3.992 44.497,6.846 z"
         inkscape:connector-curvature="0"
         style="fill:#ffffff" /><path
         id="iso-down"
         d="m 123.805,78.804 c 0,-0.279 0.01,-0.528 0.01,-0.803 -1.855,1.34 -3.863,2.549 -6,3.602 -0.139,0.07 -0.275,0.139 -0.428,0.209 l -0.348,0.166 -0.125,0.056 H 116.9 c -0.303,0.151 -0.623,0.29 -0.941,0.429 -15.449,6.691 -32.688,3.328 -43.513,-7.388 l -0.124,-0.248 46.894,-21.662 21.051,-9.715 c 0.082,0.387 0.168,0.75 0.252,1.136 v 0.015 c 0.828,4.087 1.273,8.316 1.273,12.64 0,4.779 -0.541,9.45 -1.555,13.912 -1.387,6.082 -3.654,11.822 -6.68,17.073 -3.77,6.566 -8.688,12.386 -14.494,17.168 -0.639,-0.166 -1.26,-0.375 -1.855,-0.639 3.643,-7.232 5.916,-15.283 6.484,-23.793 0.041,-0.707 0.084,-1.428 0.113,-2.146"
         inkscape:connector-curvature="0"
         style="fill:#ffffff" /></g></g></svg>