<?xml version="1.0" encoding="utf-8"?>
<!-- Generator: Adobe Illustrator 16.0.0, SVG Export Plug-In . SVG Version: 6.00 Build 0)  -->
<!DOCTYPE svg PUBLIC "-//W3C//DTD SVG 1.1//EN" "http://www.w3.org/Graphics/SVG/1.1/DTD/svg11.dtd">
<svg version="1.1" id="Layer_1" xmlns="http://www.w3.org/2000/svg" xmlns:xlink="http://www.w3.org/1999/xlink" x="0px" y="0px"
	 width="50px" height="50px" viewBox="0 0 50 50" enable-background="new 0 0 50 50" xml:space="preserve">
	<g id="isotipo_2_">
		<path fill="#FFFFFF" d="M38.411,7.207l-11.728,5.348L5.812,22.071l-0.093-0.206c-0.287-6.4,3.01-12.793,8.837-16.556
			c0.752-0.492,1.558-0.938,2.397-1.332c0.02-0.006,0.033-0.02,0.053-0.026c0.027-0.014,0.047-0.021,0.074-0.034
			C24.605,0.447,33.097,2,38.411,7.207z"/>
		<path fill="#FFFFFF" d="M35.653,34.932c0-0.134,0.007-0.255,0.007-0.387c-0.893,0.645-1.856,1.225-2.883,1.73
			c-0.067,0.034-0.134,0.067-0.207,0.1l-0.167,0.08l-0.061,0.028h-0.006c-0.146,0.071-0.299,0.139-0.452,0.205
			c-7.426,3.216-15.71,1.599-20.912-3.55l-0.06-0.119l22.536-10.408l10.117-4.668c0.039,0.186,0.078,0.359,0.119,0.545v0.007
			c0.399,1.965,0.613,3.996,0.613,6.074c0,2.295-0.261,4.54-0.747,6.686c-0.666,2.922-1.758,5.679-3.211,8.203
			c-1.81,3.156-4.175,5.953-6.965,8.252c-0.307-0.082-0.605-0.182-0.893-0.307c1.751-3.477,2.844-7.347,3.116-11.436
			c0.02-0.339,0.041-0.685,0.054-1.031"/>
	</g>
</svg>
