<?xml version="1.0" encoding="UTF-8" standalone="no"?>
<svg
   viewBox="0 0 181.99 278"
   version="1.1"
   id="svg1242"
   xmlns="http://www.w3.org/2000/svg"
   xmlns:svg="http://www.w3.org/2000/svg"
   xmlns:rdf="http://www.w3.org/1999/02/22-rdf-syntax-ns#"
   xmlns:cc="http://creativecommons.org/ns#"
   xmlns:dc="http://purl.org/dc/elements/1.1/">
  <defs
     id="defs1066">
    <style
       id="style1051">.cls-1{fill:#ea5106;}.cls-2{fill:#ccc;stroke:#544d4a;stroke-miterlimit:10;stroke-width:0.25px;}.cls-3{fill:#84726e;}.cls-4{fill:url(#Degradado_sin_nombre_69);}.cls-5{fill:#db3e0b;}</style>
    <linearGradient
       id="Degradado_sin_nombre_69"
       x1="285.74"
       y1="135.14"
       x2="285.74"
       y2="99.84"
       gradientTransform="translate(11.12 -1.47)"
       gradientUnits="userSpaceOnUse">
      <stop
         offset="0"
         stop-color="#ea7a31"
         id="stop1053" />
      <stop
         offset="0.03"
         stop-color="#ea742b"
         id="stop1055" />
      <stop
         offset="0.14"
         stop-color="#ea651a"
         id="stop1057" />
      <stop
         offset="0.28"
         stop-color="#ea590f"
         id="stop1059" />
      <stop
         offset="0.47"
         stop-color="#ea5308"
         id="stop1061" />
      <stop
         offset="1"
         stop-color="#ea5106"
         id="stop1063" />
    </linearGradient>
  </defs>
  <title
     id="title1068">pintura</title>
  <g
     id="Capa_2"
     data-name="Capa 2">
    <path
       class="cls-1"
       d="M316,65.76c-.31-.48-.37-1-1.26-1.37a1.82,1.82,0,0,1-.53-.54c-.25-.31-.46-.62-.69-.93l-.6.11A4.31,4.31,0,0,1,311.8,61c0-.23.2-.41.37-.57s.38-.13.52-.24a.47.47,0,0,0,.1-.68,2.42,2.42,0,0,0-.32-.59A8.05,8.05,0,0,1,311,55.72a1.54,1.54,0,0,1-.1-1.31.57.57,0,0,0,0-.43,1.21,1.21,0,0,1,.19-1.3,1,1,0,0,0,0-.83,7.77,7.77,0,0,1-.32-2.44,8.6,8.6,0,0,0-.44-2.7,21.89,21.89,0,0,0-.84-3.45,1.42,1.42,0,0,1-.11-.66,5.44,5.44,0,0,0-.45-2.16,5.46,5.46,0,0,1-.46-2.16A1.74,1.74,0,0,0,308,36.8s-.07-.08-.07-.12c-.1-1.14-.8-2.4-.72-3.51a14.54,14.54,0,0,0-.09-2.17,2.68,2.68,0,0,0-.3-.58c-.26-.58-.7-1.19-.4-1.67,0-.06,0-.27-.13-.32-.59-.38-.52-.86-1-1.31l-.8,0a3,3,0,0,1-.24-.47c-.09-.23-.22-.5.06-.59s.64.3,1,.45l1.12-.15,0,0a3.6,3.6,0,0,1,2.3,1.91c.18.51.43,1,.64,1.52a.53.53,0,0,0,.41.38l-.07,0,0,0,.34-.36.44.39,0,0a4.67,4.67,0,0,0-.32,1.48,7.17,7.17,0,0,0,.56,1.63c.43,1.25.84,2.49,1.28,3.74a7.12,7.12,0,0,1,.32,1.37,11.52,11.52,0,0,0,.54,1.74c.31,1,.6,2,.9,3,.22.74.43,1.47.71,2.21a2.31,2.31,0,0,1,.14,1.53,1.17,1.17,0,0,0-.05.62,15.83,15.83,0,0,0,.93,4.21,1.83,1.83,0,0,0,.23.27l.66-.48h0a.73.73,0,0,1,.5.5c.16.44.32.87.48,1.32.32.22.65.43.95.66a2,2,0,0,0,1.7.65,1.11,1.11,0,0,1,1,.65,7.34,7.34,0,0,1,.5,1.07,2.85,2.85,0,0,0,1.25,1.42A8.08,8.08,0,0,1,324,58.82a1.84,1.84,0,0,0,.47.26c.34-.06.14-.24.12-.37-.07-.48-.14-.92.35-1.21a1.7,1.7,0,0,0,.77-1.14,4,4,0,0,1,.55-1.09l1,.64c.29-.37.1-.92.35-1.33.27.11.56.23.84.37a2.4,2.4,0,0,0,2.12.28,1.37,1.37,0,0,1,.35-.08,17.05,17.05,0,0,1,4.55,2.55,7.86,7.86,0,0,1,2.75.89c.35.49.83,1.1,1.23,1.73a14.23,14.23,0,0,0,1.86,2.16c.44.44.9.87,1.44,1.39.52.18.84-.4,1.73.28.28.48.41,1-.08,1.38a1,1,0,0,0-.49,1,8.54,8.54,0,0,1-.12,1.25,1.82,1.82,0,0,0,.29.36c1.19,1,1.38,1.92,1,2.73a1.63,1.63,0,0,0,.49,1.77,7.09,7.09,0,0,1,.89,1.42c.31.59.72,1.18,1.09,1.77A16.93,16.93,0,0,1,349,78.51c.37,1,.89,2,1.35,3,0,.06.16.12.25.19.39.08.42-.15.48-.33a1.15,1.15,0,0,0,0-1.06A16.71,16.71,0,0,1,350,76.76a4.64,4.64,0,0,0,.78.63,2.88,2.88,0,0,0,.77.24c.31.07.61.12.91.17.33.25.62.49.94.7s.68.37,1.12.6a4.19,4.19,0,0,0,1.59,1.53,5.61,5.61,0,0,1,1,.81c1.17,1,2,1.17,2.89.59.18-.12.33-.26.53-.41l.94,1.08a2.59,2.59,0,0,0-.25.5,1,1,0,0,0,0,.54,1.16,1.16,0,0,0,.88.76c.53.12.87,0,.68-.47s0-.86-.09-1.31a.71.71,0,0,1,.11-.6c.27-.3.07-.67-.18-1.08a5.62,5.62,0,0,1-.78-1.75,8.83,8.83,0,0,0-.89-1.76,5.45,5.45,0,0,1-.31-.58c-.15-.39-.07-.67.38-.75l.72-.16a4.51,4.51,0,0,1,2.16,1.75c.27-.09.52-.17.78-.24s.22-.6.77-.66.62-.37.95-.54.7-.31,1-.47a.74.74,0,0,0,.23-.2c-.43-.73-.43-.73-.23-1.14.38,0,.57.28.83.45.46.31.9.65,1.36,1a2.5,2.5,0,0,0,.74.35c.66.17,1.32.28,2,.42.07-.63-1.12-1.48-.44-2a1,1,0,0,1,.69.36c.59.63,1.39,1.21,1.47,1.93a1.13,1.13,0,0,0,.39.59A8.58,8.58,0,0,1,376.09,80a2.19,2.19,0,0,1,.29.92,3.51,3.51,0,0,0,1.26,2.07,3.55,3.55,0,0,1,.57.68,6.83,6.83,0,0,0,.75,1c.22.22.21.53.32.86A6.35,6.35,0,0,1,381.62,88c.38.93.37.93,0,1.46a4,4,0,0,0-.57-.16c-.18,0-.41,0-.47.07s0,.27.07.42a.66.66,0,0,0,.22.22l1.46,1.18c0-.85.44-1.43.13-2.36a1.88,1.88,0,0,1,.32-1.9c.23-.26.48-.49,1.17-.19a1.82,1.82,0,0,0,.7,0l.88,0c.05.19.14.33.09.38a1.11,1.11,0,0,0-.1,1.13,10.46,10.46,0,0,0,.9,2.78c-.1.39,0,.79.55,1.22a.34.34,0,0,1,.08.23,18.42,18.42,0,0,0,.88,3,.83.83,0,0,1-.82.43.63.63,0,0,0-.74.54c-.36,1.24,0,2.57,1.43,4,.54.55.78.61,1.31.28l.19-.11h-.05c.51.19.59-.14.89-.2h0c.21.23.33.43.17.63a2.26,2.26,0,0,0-.07,2.28c.53,1.45,1.39,2.91,2,4.36a22.72,22.72,0,0,0,2,3.19.77.77,0,0,0,.22.22A3.12,3.12,0,0,1,396,113.2a1.24,1.24,0,0,0,.37.59,4.68,4.68,0,0,1,1.27,1.95,4.44,4.44,0,0,0,1.51,1.92,7,7,0,0,1,1.61,2.19c.2.32.32.64.49,1a1,1,0,0,1,.15.78,4,4,0,0,0,.05,1.19,4.91,4.91,0,0,0,.33,1.36,1.79,1.79,0,0,1,.12.89,3.44,3.44,0,0,0,.12,1.75,6.08,6.08,0,0,1,.14,1.33,2.53,2.53,0,0,0,.08.77,2.07,2.07,0,0,1,.18,1.09,2.33,2.33,0,0,0,.28,1.14,1,1,0,0,1,0,1,13.09,13.09,0,0,1-.79,1.05,1.2,1.2,0,0,0-.36,1.12,4.92,4.92,0,0,1-.11,1.68,1.15,1.15,0,0,0,.13,1.09.88.88,0,0,1,.15.35c.14,1,.27,2,.39,3,0,.18-.05.35,0,.54a27.61,27.61,0,0,1,.46,2.92,5.37,5.37,0,0,1,.23,2.54.41.41,0,0,0,0,.32c.71,1.24.42,2.26.56,3.37.18,1.45.08,2.83.22,4.27.15,1.62.44,3.28.65,4.91.06.52.05,1,.08,1.52a16.73,16.73,0,0,0,.13,2,10.46,10.46,0,0,0,.17,2,.45.45,0,0,1,0,.22c-.32,1.22.14,2.69,0,4a9.71,9.71,0,0,0,.23,2.1c0,.34,0,.66.06,1,.07,1,.16,2,.2,2.95,0,.59-.06,1.14-.05,1.71a7.16,7.16,0,0,0,.12,1,8.09,8.09,0,0,1,.21,1.14c0,1.3,0,2.59,0,3.88a3.06,3.06,0,0,0,.12.57,3.84,3.84,0,0,1,0,2.76,3.5,3.5,0,0,0-.12,1.57,6.8,6.8,0,0,1-.12,2.22s-.07.06-.05.09c.49.75.06,1.3.32,2a6.06,6.06,0,0,1,.34,2.35,5.29,5.29,0,0,1-.22,2.19.44.44,0,0,0-.06.3c.39,1.16-.13,2-.05,3.09a.46.46,0,0,1,0,.31c-.24.31-.59.54-.35,1.11.18.4-.06.72,0,1.14a6.44,6.44,0,0,1-.06,1.59,3.82,3.82,0,0,0,0,1.61c.23.67.39,1.33-.27,1.58a2.72,2.72,0,0,1,.12,2.44c-.06.1,0,.27,0,.41a12.37,12.37,0,0,1,.05,2.91c-.17,1.3-.22,2.65-.35,4a3.55,3.55,0,0,0,.06.55c0,.79.39,1.68-.12,2.29-.15.18.08.58.11.86a24,24,0,0,1-.1,3.71,1.09,1.09,0,0,0,0,.31,4.65,4.65,0,0,1-.22,2.48,5.68,5.68,0,0,0-.07,1.38c-.12,1.32-.29,2.63-.38,4,0,.39-.3.64-.29,1.05a16.8,16.8,0,0,1-.28,2.48,1.57,1.57,0,0,1-.16.7c-.4.53-.11,1.32-.31,1.92-.11.34.14.84.71,1.23a1.39,1.39,0,0,0,1.47,0,1,1,0,0,0,.43-.43,7.4,7.4,0,0,0,.56-1.29c.17-.57.25-1.19.43-1.77a.75.75,0,0,1,.45-.4,6.62,6.62,0,0,1,1-.22c.09.16.25.33.25.45a4,4,0,0,1-.16,2,1.94,1.94,0,0,0-.13.7c-.15.85-.26,1.71-.48,2.53a1.27,1.27,0,0,1-2.13.83c-1-.32-1.95-.44-2.95-.84a1,1,0,0,0-.69,0c-.54.22-1,.51-1.05,1.08a9.59,9.59,0,0,1-.24,1.32c-.15.6-.79.73-1.64.65-1.66-.16-1.76-.1-1.77,1.11a1.67,1.67,0,0,1-.12.81,2.91,2.91,0,0,0-.23,1.64,8.38,8.38,0,0,1-.2,3,6.37,6.37,0,0,0-.06,1.7c-.05.89-1.12,1.42-2.37,1.16a3.35,3.35,0,0,1-.61-.24c-.3-.15-.59-.32-.89-.46-1-.45-1.57-.44-1.69.19-.17.9-1.11,1.35-1.33,2.2-.08.35-.58.33-1.07.19s-.87-.11-1.08.16l-.9-.32c-.09-.09-.2-.16-.23-.23-.24-.51-.44-1-.71-1.54a3.94,3.94,0,0,0-.57-.61c-.5.21-.39.79-1.06.82l-.45-.47c-.87.58-.87.58-.72,1.48l1.27.67c0,.53-.06.89-.83.81-.12,0-.2.09-.3.14a1.34,1.34,0,0,0-1.08,0c0,.17,0,.38-.06.5a1.31,1.31,0,0,0-.21,1.57c.08.16,0,.34-.1.48-.2.34-.46.65-.64,1s0,.5.55.78a3.26,3.26,0,0,0,.67-.72,9.58,9.58,0,0,0,.8-2.15c.09-.45.56-.79.09-1.43l.88.44a1.25,1.25,0,0,1,.2,1.3c-.16.48-.35.94-.55,1.4a.86.86,0,0,0,.11,1c.21,0,.59.12.63,0,.15-.33.63-.46.58-.91s.34-.86.66-1.2c0,0,.18,0,.36,0,.09.18.29.4.28.54a5,5,0,0,1-.55,2.45c-.24.34-.26.84-.95.87-.14-.33-.67-.66-.49-1,0,0-.2-.21-.33-.26a.58.58,0,0,0-.42,0,1.07,1.07,0,0,0-.48,1.56,1.65,1.65,0,0,1,.16,1,4,4,0,0,0,.46,2.12c.31.56.3,1.15-.3,1.4l-2.33-1.24c.05-1.61-.13-1.47-1.42-2.27l0,0c-.05-.2-.17-.25-.36-.19h.05a4.91,4.91,0,0,0-.44-.25c-.19-.06-.45-.16-.55-.11s-.08.24-.1.37a.18.18,0,0,0,0,.11,1.6,1.6,0,0,1,.58,2,11.71,11.71,0,0,0-.43,3.28,5.39,5.39,0,0,1-.26,1.28c.73.41.61-.13.94-.15a4.37,4.37,0,0,1,1.88.81l.84,1.76-1.19.08c0,.19,0,.44.13.6.95.95.6,1.62.57,2.37-.57.37-.4,1.12-.7,1.63-.05.08-.09.17-.12.23a1.07,1.07,0,0,1-1-.35l-1.14-1.24a.56.56,0,0,1,.42-.74.57.57,0,0,0,.38-.56c.12,0,.28.18.2,0l-.18.06c-.27-.32-.53-.64-.82-.95a3.34,3.34,0,0,0-.45-.38l1.06-1.14c-.13-.28-.25-.55-.38-.82h.09l-.07,0-.51-.51,0-.07.08.07c-.07.11-.1.26-.22.33-.42.24-.58.56-.16,1.13.06.08-.19.21-.33.35l.53.62a2.89,2.89,0,0,0-.77.12,1.05,1.05,0,0,0-.64.72,6.13,6.13,0,0,1-.46,1.39,1.26,1.26,0,0,0,.41,1.52c.81.71.68,1.29,1,1.94l-1.07.06v0a6.07,6.07,0,0,0-.59-.27c-.31-.09-.48,0-.49.21s.15.4.11.56c-.08.32.43.38.61.66a7,7,0,0,0-.28,1.31c0,.46-.09.9-.15,1.34-.09.69-.58.94-1.63.7a1.73,1.73,0,0,0-.82,0,8.57,8.57,0,0,0-1.35.48,17.44,17.44,0,0,0-1.54.85c-.11.07-.11.24-.16.36l0,0-.53-.22-.06.11.48.31h0c-.23.16-.3.41-.81.34a4.07,4.07,0,0,0-1.2.14c-.45-.24-.9-.65-1.43-.57s-.67-.27-1.05-.52a2.71,2.71,0,0,0-.72-1.58,5.23,5.23,0,0,1-.66-1.17c-.22-.38,0-.71-.44-1.14a6.33,6.33,0,0,1-.67-1c.29-.89.75-.75,2.29-1,0-.21-.07-.44-.08-.65a.52.52,0,0,1,.27-.5,10.74,10.74,0,0,0,1.38-1.24l.38.27,0,.16v-.14c.24-.34,0-.74-.32-1.2a2.76,2.76,0,0,1-.62-1.37A1.61,1.61,0,0,1,367,273a2.51,2.51,0,0,0,.66-.84c.54-.77.5-1.82,1.18-2.51.06-.06,0-.2,0-.31s-.27-.47-.08-.64.38-.53.68-.71.49-.4.3-.79,0-.53.25-.72a.94.94,0,0,0,.32-1.22l0,0c0-.54.41-.87.63-1.29.08-.15.25-.25.32-.4.47-1.07,1.06-2.12-.71-3.81l-.66-.18c-.09.05-.18.07-.2.13-.15.47-.28,1-.46,1.42,0,.09-.3.14-.45.09a1,1,0,0,1-.45-.39,5.29,5.29,0,0,1-.16-1,1.64,1.64,0,0,0-.6-.92,1.49,1.49,0,0,0-1-.45.78.78,0,0,1-.38-.18c-.26-.22-.49-.46-.84-.8a9.48,9.48,0,0,1,1.14.16c1.19.32,1.9.13,2.19-.59a7.06,7.06,0,0,1,.82-1.19l-.47-1c-.49-.47-1.27-.72-1.43-1.33a10.24,10.24,0,0,1,3,0c.76-.36.92-1,.6-1.84a6.81,6.81,0,0,1-.66-.28,3.69,3.69,0,0,1-2-2.24,2.31,2.31,0,0,0-.37-1,.77.77,0,0,0-.15-.1l-1.27-.3a9.94,9.94,0,0,0-1.15,3.85c.6.29.69.14.76-.08,0-.07.18-.13.29-.11a.75.75,0,0,1,.35.26c.49.74.24,1.3-.58,1.37a2.85,2.85,0,0,1-.66.06c-.53-.06-.76.09-.83.43s-.21.38-.49.5c-.5.21-.44.67.23,1.16s.65.75.52,1.15a2.44,2.44,0,0,1-1.48,1.41,1.76,1.76,0,0,0-1.09,1.17h.07c-.07-.23-.15-.46-.25-.79-.38-.23-.85-.54-1.34-.8a7.59,7.59,0,0,1-1.8-1.14,7.28,7.28,0,0,0-1.63-.81,2.54,2.54,0,0,0-1.09,2.23.69.69,0,0,0,.18.45,2.21,2.21,0,0,1,.48,2.11,13.92,13.92,0,0,0-.48,1.74c0,.57-.64.75-1.24.91.1.67.2,1.31.27,1.93a2,2,0,0,0,.54.94c.31.4.45.8.07,1-.21.12-.24.3-.1.57a.55.55,0,0,1-.28.81c-.23.13-.46.25-.7.36s-.67.15-.69.48a1.43,1.43,0,0,0,.39,1.23.42.42,0,0,1,.08.16,7.31,7.31,0,0,0-.24,1c0,.35,0,.73,0,1.08,0,.69-.55.92-1.61.68-.38-.08-.78,0-1.19-.38a1.61,1.61,0,0,0-.46.06,2.74,2.74,0,0,1,0-1.58,5,5,0,0,0,.12-1.57.73.73,0,0,0-.6-.59,1.93,1.93,0,0,1-1.06-.62,2.82,2.82,0,0,0,0-.78c-.14-.8.29-1.27,1.08-1.46A1,1,0,0,0,352,265a2.69,2.69,0,0,1,.42-1.55,6.51,6.51,0,0,0,.36-1.05c.07-.22.11-.46.19-.68.34-.84.75-1.65,1-2.51a3.72,3.72,0,0,0,0-2.26c-.09-.3,0-.5.28-.59.15,0,.3-.12.33-.23a3,3,0,0,0,.1-2.43c-.33-.17-.67-.38-1-.53-.67-.29-1-.26-1.35.09,0,0,0,.06-.05.08-.84.8-1.56.63-2.91-.67.1-.2.37-.06.61,0s.25.12.31.1.4-.1.48-.22-.16-.33-.31-.42a5.47,5.47,0,0,1-2-1.82l.91-1.07c-.27-.45-.58-.77-.41-1.16.34-.76.31-.81,1.34.06.53.45,1,.5,1.15.09a1.29,1.29,0,0,1,.61-.79c.18-.1.24-.31.33-.49a2.42,2.42,0,0,1,1.63-1.4,2.83,2.83,0,0,0,.67-.4l1.55.27a6.09,6.09,0,0,0,1.62-3.62,1.53,1.53,0,0,0-.4-1.14c-.86-.89-.84-1.71-1.25-2.56-.13-.28-.17-.55-.32-.82a.9.9,0,0,0-.47-.3.29.29,0,0,0-.27.27c0,.12.18.3.25.46s.08.3.14.49a5.54,5.54,0,0,0-2.13.4c-.37.17-1.06-.11-1.61-.31a7.25,7.25,0,0,1-2.62-1.41c-.11-.1-.29-.18-.4-.29-.65-.64-1.35-.51-2-.69a.46.46,0,0,0-.4.17c-.12.13-.11.33-.23.45a.66.66,0,0,1-.47.24,1.52,1.52,0,0,0-1.49.55c-.29.45-.91.56-1.66.55a4,4,0,0,1-2.32-1.8,6.48,6.48,0,0,1-1-1.87,5.25,5.25,0,0,0-.66-1.41,2.46,2.46,0,0,0-1.63-1.18,8.4,8.4,0,0,1-1-.38c-.09.23-.28.42-.21.66.11.42-.41.69.17,1.21-.11,0-.23.11-.34.08a10.16,10.16,0,0,1-2.24-1.06,2.77,2.77,0,0,0-2.65-.53,2.88,2.88,0,0,1-2,.32c-.53-.46-1.11-.88-1.56-1.35s.06-.82-.14-1.3a6.58,6.58,0,0,1-.22-.71,1.28,1.28,0,0,0-.93.63c-.26.36-.36.85-1.13.87-.26,0-.36.29-.55.46l-1-.58-.82.41c-.29-.16-.58-.32-.86-.49-.55-.34-.74-.36-1-.1a2.67,2.67,0,0,0-.24.32l-.24.29a2.79,2.79,0,0,1-.32-.52,5.08,5.08,0,0,0-1-1.64,1.64,1.64,0,0,0-.44-.43,4.78,4.78,0,0,1-1.38-1.11,1.49,1.49,0,0,0-1.12-.56,3.29,3.29,0,0,1-1.36-.36c-.85-.34-1.24-.26-1.47.26a13.19,13.19,0,0,0-.4,1.26,2.21,2.21,0,0,1-.18.34,2.32,2.32,0,0,1-1.72-1.09,8.54,8.54,0,0,0-2.59-2.47,17.79,17.79,0,0,1-1.4-1.19c0-.43,0-.9,0-1.38a1.68,1.68,0,0,0-.18-.66,1.78,1.78,0,0,1-.13-1.83c.56-.81.18-1.78-.77-2.84h0c1-1.07.63-2.6,0-4.19a8.2,8.2,0,0,0-.6-1.18,1.18,1.18,0,0,0-.48-.34.31.31,0,0,0-.31.1,11.4,11.4,0,0,0-.5,1.53c-.18.79-.24.89-1.37,1.36a3.54,3.54,0,0,1-1.65-2.08.54.54,0,0,1,.28-.61,1.39,1.39,0,0,0,.7-.85,13.66,13.66,0,0,0,.8-2.71c.18-.87.43-1.72.69-2.56a1,1,0,0,1,.55-.57,3.19,3.19,0,0,1,.94,0,12.05,12.05,0,0,0,.31-1.38c.1-.89-.16-1.23-1.53-2.05a3.11,3.11,0,0,1-.49-.39L301.49,199a10,10,0,0,1-1.1,0c-1-.07-1.27.39-1.15,1a4.9,4.9,0,0,1-.23,2.18c-.13.56-.64.83-1.57.79a5.68,5.68,0,0,1-1-2.8,4.7,4.7,0,0,1,0-.65,1.26,1.26,0,0,0-.49-.92l-2-1.84a9.51,9.51,0,0,0-2-1.13.88.88,0,0,0-.93,0,1.8,1.8,0,0,0-.73,1.62A14.64,14.64,0,0,1,290,201c-.11.59-.12.63-.66,1.08-.35-.1-.38-.32-.49-.5-.4-.67-.78-1.34-1.2-2a1.47,1.47,0,0,0-.53-.52,1.87,1.87,0,0,1-1.17-1.25,9.45,9.45,0,0,0-.63-1.16l-1.68-.8a7.08,7.08,0,0,1-.18-.85,9.76,9.76,0,0,1-.06-1.42c0-.66.24-1.28.24-1.95a25.45,25.45,0,0,0,.12-3.29,10.44,10.44,0,0,1,.05-2c0-1.24.06-2.5.13-3.73s-.07-2.26,0-3.32c.16-1.53.09-3.13.22-4.67.11-1.21,0-2.5.05-3.74.06-1.85.17-3.69.25-5.53a8.67,8.67,0,0,0-.06-.88,10.24,10.24,0,0,1-.05-2.27c.2-1-.09-2,0-3s-.09-1.74.1-2.54a8.45,8.45,0,0,0,0-2.13c0-.76-.06-1.53-.07-2.28,0-2.21,0-4.4-.07-6.61,0-.79-.23-1.64-.21-2.41,0-1.39-.16-2.84,0-4.18.11-1-.15-2-.12-3,0-.7-.33-1.52,0-2.11v-.07l.09.05-.11,0c-.45-.36.21-.43-.13-.82s-.05-.54,0-.79a1.36,1.36,0,0,0-.1-.77,8.11,8.11,0,0,1-.19-2.79,5.72,5.72,0,0,0-.22-1.54c-.09-.33-.08-.57.17-.75s-.53-.43-.22-.58l.06-.08,0-.07-.08.18a2.11,2.11,0,0,1,0-1.8c.09-.18,0-.35-.17-.54s.66-.28,0-.72A3.31,3.31,0,0,0,283,122a10.29,10.29,0,0,1-.47-2.71h.08l-.08,0c0-.19-.06-.37-.1-.56l.08,0-.06,0a6.34,6.34,0,0,1-.17-1,5,5,0,0,0-.15-1.73,1.37,1.37,0,0,1,.12-1.23l.09,0-.11,0c0-.22-.09-.44-.13-.67-.09-.5.26-.9-.24-1.51a.24.24,0,0,1,0-.22c.25-.91-.37-2.09-.07-3,.06-.2-.14-.53-.22-.79a9.32,9.32,0,0,1-.4-2.15,12.49,12.49,0,0,0-.48-3.89,6.06,6.06,0,0,1-.3-1.8,6.13,6.13,0,0,0-.39-2.15,12.31,12.31,0,0,1-.45-3.12,7.57,7.57,0,0,0-.55-2.93,1.47,1.47,0,0,1-.09-.68,9.74,9.74,0,0,0-.54-3.36c0-.14.05-.26.06-.33.29-.09.46.11.65.18.62.23.93.22,1.13-.05s.54-.76.8-1.15a.62.62,0,0,0,.06-.3c0-.4-.05-.81,0-1.19a6.9,6.9,0,0,0,.13-1,7.53,7.53,0,0,1,.2-3.05,3.09,3.09,0,0,0,.07-1.49,10.81,10.81,0,0,0-1.14-4,7.35,7.35,0,0,1-.46-1.16c1.05-.42,1.05-.42.64-1.51l.82-.52a18.23,18.23,0,0,1-1.39-2.95,9,9,0,0,0-.92-1.59c.58-.35,1.39-.57,1-1.56l1.09.13c.06-.24.11-.4.14-.56.1-.5.48-.75,1.18-.81s1.39-.08,1.46-.67c.37.18.57.27.83.38l1.09-.63c.19-.51-.13-1.09-.37-1.63a14.76,14.76,0,0,1-.88-2.45,5.33,5.33,0,0,0-1.75-2.68l-.72-.18a5,5,0,0,1-.53-2.78c0-.19-.15-.46-.22-.69-.15-.5-.31-1-.43-1.51s0-1.08-.75-1.7c-.17-.15-.1-.43-.15-.66s-.21-.28-.72-.48c.21-.31.5-.47,1.12-.28s.94.24,1.41.4c.79.28,1.09.56,1.27,1.18.14.46.22.92.33,1.38s.5.9,1.33,1.06l.31.06s.08,0,.13,0c.47-.26.46-.73.32-1.24-.09-.32-.16-.62,0-.84a1.65,1.65,0,0,0,.14-1.43,3.18,3.18,0,0,1,.35-2.15l1.44-.19a9.13,9.13,0,0,0,1.13.63,3.76,3.76,0,0,0,1.08.21,1.69,1.69,0,0,1,1,.3,1.86,1.86,0,0,1,.74,1c0,.08.06.17.05.23-.08.53.32,1.05.85,1.61.75.14,1.23.06,1.25-.52a1.73,1.73,0,0,1,.2-.68c.16-.33.62-.42,1.17-.22a4.13,4.13,0,0,1,1.67,1,19.17,19.17,0,0,1,2.28,2.76c.77,1.26,1.75,2.51,2.53,3.77a23.66,23.66,0,0,1,1.22,2.48c.39.87.7,1.73,1.15,2.6a27.51,27.51,0,0,1,1.33,3,8.66,8.66,0,0,0,.63,1.06,3.67,3.67,0,0,0,1.65,1.26c.3.14.64,0,.58-.21a2.39,2.39,0,0,0-.37-.8,1.25,1.25,0,0,1-.24-1.33,2.1,2.1,0,0,1,1.47.78,6.73,6.73,0,0,0,1.94,1.68c.73.25.74-.3,1.23-.41a2.32,2.32,0,0,1,.38.42,10.24,10.24,0,0,1,.37,1.06,6.85,6.85,0,0,0,1.9,2.23,4.38,4.38,0,0,0,1.08.51c0-.52-.06-1-.08-1.41L317,71a24,24,0,0,0-.49-3.84l.69.55.37-.49c.11.1.21.16.24.22A2.12,2.12,0,0,1,318,68c.2,1.39.5,1.51,1.24,2.64.53-.45.71-.75.52-1.29-.45-1.25-.7-2.46-1.17-3.71a1.72,1.72,0,0,0-.4-.7,3.23,3.23,0,0,1-1.08-2.06A24.89,24.89,0,0,0,316,59.19a19.19,19.19,0,0,0-.66-2.08,16.81,16.81,0,0,0-1.17-2,9.83,9.83,0,0,0-.69-.8c-.2-.26-.18-.55-.57-.78-.1,0-.26,0-.26,0a1.33,1.33,0,0,0,0,.74c.69,1.72.89,3.37,1.61,5.1.64,1.53.89,3,1.52,4.54a2.3,2.3,0,0,1,.15,1.85Zm64.48,197.17c0,.14-.23.2.13.5-.08-.23-.12-.37-.17-.5s.18,0,.21-.08a.68.68,0,0,0,0-.25c-.12,0-.3-.06-.35,0S380.21,262.81,380.45,262.93ZM321.37,65.72h-.05a3.76,3.76,0,0,1,1,1.84l.12.34,1.24.45c.55-.13.7-.36.35-.87a15.41,15.41,0,0,1-.78-1.39l-1.69-1c-.26-.56-.49-1-.31-1.47a1.88,1.88,0,0,0,.09-.72c0-1.11.34-2.08-.2-3.37a8.12,8.12,0,0,0-1.82-3.12c-.64-.62-1.36-.85-1.71-.41a1.08,1.08,0,0,0-.29.74,12.38,12.38,0,0,0,.49,2.81,16.76,16.76,0,0,1,.76,3.09,36.22,36.22,0,0,0,1.34,4.49,1.75,1.75,0,0,0,.85.9,1.3,1.3,0,0,0,.64-1.69A3,3,0,0,1,321.37,65.72ZM361,243.51c-.31-.18-.45-.28-.6-.35-.61-.29-.74-.28-1,0s-.28.33-.07.59a.93.93,0,0,1,.15.88c-.1.53-.19,1.08-.28,1.61a.75.75,0,0,1-.51.6,1.74,1.74,0,0,0-1,1.76,4.72,4.72,0,0,1,.9.14,2.07,2.07,0,0,1,.63.48,6.67,6.67,0,0,1,.43.61c.41-.3.88-.52.79-1.11,0-.21.24-.45.51-.46.58,0,.69-.4,1-.59s.33-.64.23-1.08a1.31,1.31,0,0,0-.6-1,1,1,0,0,1-.44-.79A7.67,7.67,0,0,0,361,243.51ZM384.59,90.13a3.07,3.07,0,0,0-.23.64,4.53,4.53,0,0,1,0,.83,1.26,1.26,0,0,0,.1,1.19.73.73,0,0,1,0,.74c-.1.21-.2.42-.31.63a.68.68,0,0,0,.12.76,2.14,2.14,0,0,0,1.27,1c.13-.2.38-.38.41-.65.08-.86.07-1.76.1-2.65,0-.61-.88-1.32-.79-1.93,0-.08-.16-.23-.27-.34A3.1,3.1,0,0,0,384.59,90.13ZM312.29,44.2c-.58,0-.9-.41-1.36-.63a3.86,3.86,0,0,0-.13.55,2.51,2.51,0,0,0,.05.66c.21.88.43,1.77.66,2.65a1.25,1.25,0,0,0,.22.47,1.15,1.15,0,0,0,.38.22c.06,0,.19,0,.19-.09a7,7,0,0,0-.12-1c-.07-.3-.21-.63.12-.78.16.1.35.28.49.3.33.05.3-.15.23-.36C312.78,45.56,312.56,44.94,312.29,44.2Zm42.85,202.09c-.13.59-.25,1.05-.33,1.52s-.06.54.9,1a4.91,4.91,0,0,0,.59-1.92Zm-66-195.81c.24.41.44.75.66,1.1a8.84,8.84,0,0,0,.62.82.81.81,0,0,0,.41.19c.11,0,.24-.07.24-.16a3.3,3.3,0,0,0,0-.88.73.73,0,0,0-.64-.55.92.92,0,0,1-.75-.41C289.58,50.54,289.36,50.53,289.11,50.48ZM360,253c-.23,0-.62-.13-1-.19-.07,0-.13.07-.17.12-.14.22.15.6.69.92s.93.35,1.1.19S360.6,253.35,360,253Zm13.89,29.33.5-.57c-.65-.63-.65-.61-1.07-.56a.68.68,0,0,0-.67.81C373.07,282.07,373.42,281.87,373.92,282.35ZM328.3,55.76c-.12.22-.32.36-.26.54a2.42,2.42,0,0,0,.73,1.25.36.36,0,0,0,.15.06c.08,0,.21,0,.2-.07A3.74,3.74,0,0,0,328.3,55.76Zm48.53,32.88c-.09.33-.16.44-.14.57.05.36.47.78.72.72s.14-.34.06-.54A4.73,4.73,0,0,0,376.83,88.64Zm21.65,154.18a.44.44,0,0,0-.19-.61.52.52,0,0,0-.62,0,.36.36,0,0,0-.15.12c-.1.17,0,.33.27.5S398.35,243,398.48,242.82ZM384.11,253c.32-.18.58-.34.32-.76a.75.75,0,0,0-.35-.26.31.31,0,0,0-.31.1C383.65,252.37,383.74,252.65,384.11,253ZM312.9,50.12c-.58.21-.58.21,0,.7C312.87,50.55,312.89,50.34,312.9,50.12ZM381.48,91.3l0,.19c.05,0,.14,0,.14,0a.79.79,0,0,0,0-.2ZM311.9,49.43l0-.1h-.11s0,.06,0,.09Z"
       transform="translate(-228.65 -26)"
       id="path1070" />
    <path
       class="cls-1"
       d="M354.78,76.73c-.16-1-1.17-1.21-2.09-1.52a1.59,1.59,0,0,1-.18-1.52,4.57,4.57,0,0,0,.17-3.12.91.91,0,0,1,1,.05,3.26,3.26,0,0,1,1.24.81c.17.23.37.46.53.7a11.54,11.54,0,0,0,2,2.33,3,3,0,0,1,1.17,1.93A2.82,2.82,0,0,0,359.4,78c.68.79.55,1.34.11,1.74a2.11,2.11,0,0,0-.56.81c-.14.37-.61.32-1.19-.06a2.75,2.75,0,0,1-1.13-1.21c-.16-.43-.3-.85-.45-1.28a7.07,7.07,0,0,0-.32-.83C355.66,76.84,355.3,76.74,354.78,76.73Zm-1.43-3.14a1.17,1.17,0,0,0-.27.37c0,.05.16.24.27.28s.28,0,.31-.07S353.71,73.83,353.35,73.59Zm.09-.52s0-.07,0-.11-.1,0-.11,0,0,.06,0,.09Z"
       transform="translate(-228.65 -26)"
       id="path1072" />
    <path
       class="cls-1"
       d="M380.6,282.12c.36.63.71,1.25,1.1,1.88a.82.82,0,0,0,.92.31c.07,0,.18-.06.18-.12,0-.69.81-.86,1.09-1.36,1.05.47,1,.47,1.06,1a5.63,5.63,0,0,1-.45,2.06,10.05,10.05,0,0,1-.71,1.5,2.08,2.08,0,0,0,.42.7c.91.76,1.1,1.45.89,2.09-.09.25.25.44.34.72l-.67.26a8.38,8.38,0,0,1-2-1c-.9-.51-1-.5-1.59-.08a.44.44,0,0,1-.36,0,.74.74,0,0,1-.34-.28c-.08-.15-.15-.36-.07-.44a2.41,2.41,0,0,0,.44-1.1.92.92,0,0,1,.33-.38.61.61,0,0,0,.23-.74,1.15,1.15,0,0,1,.08-.61c.14-.72,0-1-1.06-1.69l-.61-.41-.22-.55-.26-.64a3.5,3.5,0,0,0,1.35-1.2Z"
       transform="translate(-228.65 -26)"
       id="path1074" />
    <path
       class="cls-1"
       d="M358.78,269.35a1.51,1.51,0,0,1-.07-1.7c.14-.17,0-.49.1-.71a.86.86,0,0,1,1-.44,1.54,1.54,0,0,1,.89,1.06,1.9,1.9,0,0,1-.18,1.63,3.62,3.62,0,0,0-.29,2.77,1.3,1.3,0,0,1-.08.92,3,3,0,0,0-.24.87,6.13,6.13,0,0,1-.39,1.14c-.08.16-.35.21-.57.33l-1.39-1c.44-.34.34-1,.47-1.47a1,1,0,0,0-.17-.77c-.57-1.05-.37-1.79.51-2.24A2.56,2.56,0,0,0,358.78,269.35Z"
       transform="translate(-228.65 -26)"
       id="path1076" />
    <path
       class="cls-1"
       d="m 129.89593,245.82565 a 1.51,1.51 0 0 1 -0.07,-1.69999 c 0.14,-0.17001 0,-0.49 0.1,-0.71 a 0.86,0.86 0 0 1 1,-0.44 1.54,1.54 0 0 1 0.89,1.06 1.9,1.9 0 0 1 -0.18,1.63 3.62,3.62 0 0 0 -0.29,2.77 1.3,1.3 0 0 1 -0.08,0.92 3,3 0 0 0 -0.24,0.87 6.13,6.13 0 0 1 -0.39,1.14 c -0.08,0.16 -0.35,0.20999 -0.57,0.33 l -1.39,-1 c 0.44,-0.34 0.34,-1 0.47,-1.47001 a 1,1 0 0 0 -0.17,-0.77 c -0.57,-1.05 -0.37,-1.79 0.51,-2.24 a 2.56,2.56 0 0 0 0.41,-0.39 z"
       id="path1076-5"
       style="fill:#ea5106" />
    <path
       class="cls-1"
       d="m 173.32,76 c 0.29,0 0.58,0.05 0.87,0.05 h 0.84 c 0.41,0.46 0.32,0.79 0.08,1 a 2.36,2.36 0 0 1 -0.85,0.63 2.59,2.59 0 0 0 -1.75,2.15 7.74,7.74 0 0 1 -0.38,1.15 c 0,0.12 -0.14,0.26 -0.07,0.4 0.55,1 -0.31,1.32 -0.71,1.82 -0.73,-0.18 -1,-0.52 -1.06,-0.89 a 1.28,1.28 0 0 1 0.16,-0.9 1.64,1.64 0 0 0 0.08,-1.95 2.23,2.23 0 0 0 0.87,-1.77 1.88,1.88 0 0 0 -0.38,-1.25 1.88,1.88 0 0 1 -0.23,-0.63 c 0.44,0.05 0.84,0.12 1.22,0.14 0.38,0.02 1.05,0.24 1.38,0 z"
       id="path1078" />
    <path
       class="cls-1"
       d="M364.56,274.25l-.64-.34a1.06,1.06,0,0,1-.08-.23,12.27,12.27,0,0,1,0-1.49,1.13,1.13,0,0,1,.36-.8,1.4,1.4,0,0,0,.54-1.05,1.47,1.47,0,0,1,.25-.66,8.15,8.15,0,0,0,1.2-3.39,6.45,6.45,0,0,1,.81-1.72c.06-.11.36-.09.6-.13.3.44.51.81.23,1a1,1,0,0,0-.3,1c0,.14,0,.32,0,.41a5.61,5.61,0,0,0-.63,2c-.16.54-.51,1-.69,1.52s-.42,1.06-.62,1.59c-.11.31-.39.59-.13,1s-.22.6-.27.93S364.78,274.14,364.56,274.25Zm.54-3-.07,0,.07,0Z"
       transform="translate(-228.65 -26)"
       id="path1080" />
    <path
       class="cls-1"
       d="m 134.9021,248.56742 -0.64,-0.34 a 1.06,1.06 0 0 1 -0.08,-0.23 12.27,12.27 0 0 1 0,-1.49 1.13,1.13 0 0 1 0.36,-0.8 1.4,1.4 0 0 0 0.54,-1.05 1.47,1.47 0 0 1 0.25,-0.66 8.15,8.15 0 0 0 1.2,-3.39 6.45,6.45 0 0 1 0.81,-1.72 c 0.06,-0.11 0.36,-0.09 0.6,-0.13 0.3,0.44 0.51,0.81 0.23,1 a 1,1 0 0 0 -0.3,1 c 0,0.14 0,0.32 0,0.41 a 5.61,5.61 0 0 0 -0.63,2 c -0.16,0.54 -0.51,1 -0.69,1.52 -0.18,0.52 -0.42,1.06 -0.62,1.59 -0.11,0.31 -0.39,0.59 -0.13,1 0.26,0.41 -0.22,0.6 -0.27,0.93 -0.05,0.33 -0.41,0.25 -0.63,0.36 z m 0.54,-3 h -0.07 z"
       id="path1080-3"
       style="fill:#ea5106" />
    <path
       class="cls-1"
       d="M277.34,76.65a17.38,17.38,0,0,1-.77-2.64,2,2,0,0,0-.9-1.48,3.11,3.11,0,0,1-1.27-1.92,2.82,2.82,0,0,0-.34-.94,2.13,2.13,0,0,1-.27-2,1.1,1.1,0,0,1,1,.51A5.17,5.17,0,0,1,276,70.44c0,.29.24.6.76.82s.86.74.74,1a2.67,2.67,0,0,0,.13,1.54,3,3,0,0,1,.05,1.4,6.12,6.12,0,0,0,0,1.48Z"
       transform="translate(-228.65 -26)"
       id="path1082" />
    <path
       class="cls-1"
       d="M351.39,274.7c.29.87.58,1.71.86,2.55.48.53,1.43.91,1.54,1.54a2.06,2.06,0,0,1-1.36,0,7.51,7.51,0,0,0-1.64-.25c-.55,0-1-.3-1-.71a9.74,9.74,0,0,1,.22-1.73c.06-.37.39-.6.35-1S350.79,274.61,351.39,274.7Z"
       transform="translate(-228.65 -26)"
       id="path1084" />
    <path
       class="cls-1"
       d="M381.4,82.24l.9.44c.53.25.88.64.8.95-.14.53.18.94.87,1.39a3.43,3.43,0,0,1,.46.47l-.32.6c-2.46-.41-2.46-.41-3.91-1.21-.28-.62.21-.93.52-1.23A2.2,2.2,0,0,0,381.4,82.24Z"
       transform="translate(-228.65 -26)"
       id="path1086" />
    <path
       class="cls-1"
       d="M273.47,51.16c-.24-.09-.49-.3-.71-.17a.67.67,0,0,1-.41.16,1,1,0,0,1-.53-.27,3.59,3.59,0,0,1-.53-2.66s0-.07,0-.08a1.89,1.89,0,0,1,.72-.15,1.18,1.18,0,0,1,.78.51c.13.2.33.44.3.58a4.77,4.77,0,0,0,.4,1.7c0,.14-.07.25-.1.38Z"
       transform="translate(-228.65 -26)"
       id="path1088" />
    <path
       class="cls-1"
       d="M383.28,303.55c.16-.23.22-.42.39-.54a.42.42,0,0,0,.19-.53c-.14-.46.24-.67.52-.9s.79,0,1,.33.45.62.28.89a1.37,1.37,0,0,0-.13.58c-.07.58-.25.69-1,.59a2.39,2.39,0,0,1-.45-.09A8.16,8.16,0,0,1,383.28,303.55Z"
       transform="translate(-228.65 -26)"
       id="path1090" />
    <path
       class="cls-1"
       d="M387.86,276.31c-.08-.22-.2-.39-.15-.43.32-.28.18-.75.3-1.1a7,7,0,0,0,.19-1.11c.11-.59.3-1.12,1.17-1.21.48.43.23.74.21,1.05a2.42,2.42,0,0,1-.37.93,6.29,6.29,0,0,0-.72,1.58C388.46,276.17,388.13,276.2,387.86,276.31Z"
       transform="translate(-228.65 -26)"
       id="path1092" />
    <path
       class="cls-1"
       d="M341.61,248.09a2.6,2.6,0,0,1-.4-.31c-.27-.37-.53-.74-.84-1.2l.66.15c.61.17,1.19.15,1.4-.13s.5-.23.89-.18c.15,0,.3,0,.55.07,0,.19.1.38.05.51a1.54,1.54,0,0,1-1.17.87C342.39,248,342,248,341.61,248.09Z"
       transform="translate(-228.65 -26)"
       id="path1094" />
    <path
       class="cls-1"
       d="M305.31,233c.21.25.31.33.32.4a2.43,2.43,0,0,1-.81,2.41c-.18.13-.58,0-.78-.22-.38-.47-.49-.85-.17-1.16s.53-.61.81-.91S305,233.2,305.31,233Z"
       transform="translate(-228.65 -26)"
       id="path1096" />
    <path
       class="cls-1"
       d="m 74.762355,221.52614 c 0.21,0.25 0.31,0.33 0.32,0.4 a 2.43,2.43 0 0 1 -0.81,2.41 c -0.18,0.13 -0.58,0 -0.78,-0.22 -0.38,-0.47 -0.49,-0.85 -0.17,-1.16 0.32,-0.31 0.53,-0.61 0.81,-0.91 0.28,-0.3 0.32,-0.32 0.63,-0.52 z"
       id="path1096-7"
       style="fill:#ea5106" />
    <path
       class="cls-1"
       d="M321.76,241.6a2.43,2.43,0,0,1,2-1l.71.7,1.43.35a2.08,2.08,0,0,1,0,.46c-.14.45-.49.49-1.07,0a1.53,1.53,0,0,0-1.62-.43A1.88,1.88,0,0,1,321.76,241.6Z"
       transform="translate(-228.65 -26)"
       id="path1098" />
    <path
       class="cls-1"
       d="M386.93,279.92a10,10,0,0,1-.1-1.52,6.35,6.35,0,0,1,.37-1.29,4.07,4.07,0,0,1,.66.36c.14.12.29.37.24.44-.29.35-.07.81.13,1.28a.46.46,0,0,1-.19.63A1,1,0,0,1,386.93,279.92Z"
       transform="translate(-228.65 -26)"
       id="path1100" />
    <path
       class="cls-1"
       d="M408.6,228.5c.71,1.66.7,1.66.43,2.54a3,3,0,0,0,.21,2.1l-.72.27c-.09-.06-.17-.1-.17-.12,0-.42-.2-.91-.05-1.25a3.5,3.5,0,0,0,.13-2.09A4.44,4.44,0,0,1,408.6,228.5Z"
       transform="translate(-228.65 -26)"
       id="path1102" />
    <path
       class="cls-1"
       d="M346.05,68.9a2.05,2.05,0,0,1,1.26.88,6,6,0,0,1,1.1,2.61c0,.06-.09.09-.17.18-.67-.82-1-1.64-1.63-2.43a2.2,2.2,0,0,1-.51-1.24Z"
       transform="translate(-228.65 -26)"
       id="path1104" />
    <path
       class="cls-1"
       d="M278.52,63.4c.94,1.45,1,1.84.64,2.61a3.83,3.83,0,0,1-1.47-2.23C277.66,63.59,277.71,63.57,278.52,63.4Z"
       transform="translate(-228.65 -26)"
       id="path1106" />
    <path
       class="cls-1"
       d="M386.43,296.27c-.76-.67-.43-1.12-.52-1.66l1-.14a1.64,1.64,0,0,1,.26.16,1.17,1.17,0,0,1,.23,1.28C387.32,296.2,387.08,296.39,386.43,296.27Z"
       transform="translate(-228.65 -26)"
       id="path1108" />
    <path
       class="cls-1"
       d="M369.72,287.25a6.39,6.39,0,0,1,.08.73c0,.44-.29.56-.88.43a1.92,1.92,0,0,1-.46-.11,3,3,0,0,1-.68-.39c-.19-.17,0-.54.2-.62A7.48,7.48,0,0,1,369.72,287.25Z"
       transform="translate(-228.65 -26)"
       id="path1110" />
    <path
       class="cls-1"
       d="M346.1,68.9c-.1-.38-.55-.68-.84-1-.55-.66-.41-1.07.43-1.25a2.63,2.63,0,0,1,.88,1.8c0,.21-.34.32-.52.47Z"
       transform="translate(-228.65 -26)"
       id="path1112" />
    <path
       class="cls-1"
       d="M409.69,215.25c.28.72.37,1.14.23,1.48-.31.75.1,1.81-.7,2.54a4.65,4.65,0,0,1,.06-1.63C409.59,217,409.15,216,409.69,215.25Z"
       transform="translate(-228.65 -26)"
       id="path1114" />
    <path
       class="cls-1"
       d="m 169.6,65.3 c 0.26,0.48 0.47,0.91 0.3,1.26 a 0.37,0.37 0 0 1 -0.35,0.18 1.25,1.25 0 0 1 -0.54,-0.3 c -0.55,-0.59 -0.38,-1.13 0.34,-1.24 0.03,-0.02 0.09,0.02 0.25,0.1 z"
       id="path1116" />
    <path
       class="cls-1"
       d="M391.88,261.25l.59-1.51c.4,0,.61.21.59.41,0,.41,0,.85-.26,1.15S392.36,261.55,391.88,261.25Z"
       transform="translate(-228.65 -26)"
       id="path1118" />
    <path
       class="cls-1"
       d="M380.67,282.12c-.47-.15-.31-.41-.46-.61s-.3-.36-.47-.56l.38-.13.11,0h.14c.3.4.8.19,1.13.53.17.32,0,.49-.24.6s-.44.14-.66.21Z"
       transform="translate(-228.65 -26)"
       id="path1120" />
    <path
       class="cls-1"
       d="M389.19,94.42a2.41,2.41,0,0,1,1.51.14c0,.37-.31.47-.69.55C389.68,95,389.24,94.92,389.19,94.42Z"
       transform="translate(-228.65 -26)"
       id="path1122" />
    <path
       class="cls-1"
       d="M344.61,273.28a4,4,0,0,1-1-.4c-.37-.42-.38-.77.06-.94A2.24,2.24,0,0,1,344.61,273.28Z"
       transform="translate(-228.65 -26)"
       id="path1124" />
    <path
       class="cls-1"
       d="M313.83,237.29c.3-.43.3-.43,1.11-.35-.05.64-.08.68-.71.93l-.39-.56Z"
       transform="translate(-228.65 -26)"
       id="path1126" />
    <path
       class="cls-1"
       d="M397.67,256.41l-.4-.32.46-.87c.62.21.78.38.54.61s-.42.37-.64.56Z"
       transform="translate(-228.65 -26)"
       id="path1128" />
    <path
       class="cls-1"
       d="M283.47,62.41a1.73,1.73,0,0,1,0-1.95A2.78,2.78,0,0,1,283.47,62.41Z"
       transform="translate(-228.65 -26)"
       id="path1130" />
    <path
       class="cls-1"
       d="M349.08,74.31c.21.22.44.43.63.66s.27.6-.15.72c-.51-.53-.64-1-.42-1.38Z"
       transform="translate(-228.65 -26)"
       id="path1132" />
    <path
       class="cls-1"
       d="M313.84,237.31a1.86,1.86,0,0,1-1.06.81c-.4-.51-.32-.82.24-.85a7.36,7.36,0,0,1,.81,0Z"
       transform="translate(-228.65 -26)"
       id="path1134" />
    <path
       class="cls-1"
       d="M322.8,236c-.12.32,0,.8-.71.73C322,235.86,322.06,235.81,322.8,236Z"
       transform="translate(-228.65 -26)"
       id="path1136" />
    <path
       class="cls-1"
       d="M409.63,213.42c.5.45.28.63.26.86a4.48,4.48,0,0,0,0,.73C409.53,214.59,409.5,214.4,409.63,213.42Z"
       transform="translate(-228.65 -26)"
       id="path1138" />
    <path
       class="cls-1"
       d="M410.14,207.43v-.71a.56.56,0,0,1,.47.49C410.68,207.44,410.67,207.66,410.14,207.43Z"
       transform="translate(-228.65 -26)"
       id="path1140" />
    <path
       class="cls-1"
       d="M336.79,235c-.07-.3-.12-.55.25-.51.14,0,.34.22.49.32,0,.1,0,.2-.08.2A4.94,4.94,0,0,1,336.79,235Z"
       transform="translate(-228.65 -26)"
       id="path1142" />
    <path
       class="cls-1"
       d="M409.34,219.77a1.61,1.61,0,0,1,.19.48c0,.08-.15.12-.25.16s-.12,0-.13-.07-.12-.23-.09-.31S409.2,219.89,409.34,219.77Z"
       transform="translate(-228.65 -26)"
       id="path1144" />
    <path
       class="cls-1"
       d="M364.6,75l-1.21,0C363.63,74.63,363.63,74.63,364.6,75Z"
       transform="translate(-228.65 -26)"
       id="path1146" />
    <path
       class="cls-1"
       d="M363.33,74.16a2.64,2.64,0,0,1-.37.2s-.16-.06-.25-.09,0-.16.06-.16a3.48,3.48,0,0,1,.54.07Z"
       transform="translate(-228.65 -26)"
       id="path1148" />
    <path
       class="cls-1"
       d="M389.28,271.89l.47-.23c.23.23.14.36-.05.4S389.44,272,389.28,271.89Z"
       transform="translate(-228.65 -26)"
       id="path1150" />
    <path
       class="cls-1"
       d="M278.22,78.09v.29a1.14,1.14,0,0,1-.27-.12.21.21,0,0,1,0-.21S278.09,78.07,278.22,78.09Z"
       transform="translate(-228.65 -26)"
       id="path1152" />
    <path
       class="cls-1"
       d="M310.4,30.13l.34-.64c.14.46.14.46-.37.6Z"
       transform="translate(-228.65 -26)"
       id="path1154" />
    <path
       class="cls-1"
       d="M364.41,274.61a1.27,1.27,0,0,1-.06.18l-.11-.05a.76.76,0,0,1,0-.16S364.36,274.6,364.41,274.61Z"
       transform="translate(-228.65 -26)"
       id="path1156" />
    <path
       class="cls-1"
       d="M379.46,264a2.61,2.61,0,0,1-.06.27s-.07,0-.1,0-.12-.12-.12-.16a.94.94,0,0,1,0-.29h-.05l.36.19Z"
       transform="translate(-228.65 -26)"
       id="path1158" />
    <path
       class="cls-1"
       d="M407.06,230.56l-.08.18h-.05c0-.07.05-.13.08-.19Z"
       transform="translate(-228.65 -26)"
       id="path1160" />
    <path
       class="cls-1"
       d="M389.63,270.13l.23.19a3.24,3.24,0,0,1-.33-.13s0-.07,0-.1Z"
       transform="translate(-228.65 -26)"
       id="path1162" />
    <path
       class="cls-1"
       d="M312.4,235.11l.16-.06s0,.09,0,.1a1.26,1.26,0,0,1-.16.07Z"
       transform="translate(-228.65 -26)"
       id="path1164" />
    <path
       class="cls-1"
       d="M321.43,238.65c-.08,0-.2,0-.22-.07s0-.13-.06-.19a.73.73,0,0,1,.26.08C321.45,238.52,321.42,238.59,321.43,238.65Z"
       transform="translate(-228.65 -26)"
       id="path1166" />
    <path
       class="cls-1"
       d="M365.5,254.16q0,.17.06.3a.85.85,0,0,1-.27-.1.21.21,0,0,1,0-.2S365.39,254.16,365.5,254.16Z"
       transform="translate(-228.65 -26)"
       id="path1168" />
    <path
       class="cls-1"
       d="M316.27,51.43a1.89,1.89,0,0,1-.09-.21s0,0,0-.07.12.11.12.14-.07.1-.11.15Z"
       transform="translate(-228.65 -26)"
       id="path1170" />
    <path
       class="cls-1"
       d="M324.82,238.72a.37.37,0,0,1,0-.18h.11a.56.56,0,0,1,0,.18S324.86,238.72,324.82,238.72Z"
       transform="translate(-228.65 -26)"
       id="path1172" />
    <path
       class="cls-1"
       d="M273.47,58.58a.49.49,0,0,1-.16-.07s0,0,0-.06Z"
       transform="translate(-228.65 -26)"
       id="path1174" />
    <path
       class="cls-1"
       d="M409.83,211.61s0,.09,0,.09l-.15,0a.11.11,0,0,1,0-.08S409.8,211.61,409.83,211.61Z"
       transform="translate(-228.65 -26)"
       id="path1176" />
    <path
       class="cls-1"
       d="M380.85,266.87a.65.65,0,0,1,0,.19s-.08,0-.12,0a1.25,1.25,0,0,1,0-.19S380.81,266.87,380.85,266.87Z"
       transform="translate(-228.65 -26)"
       id="path1178" />
    <path
       class="cls-1"
       d="M389.66,270.8h-.27a.25.25,0,0,1,.12,0l.15,0Z"
       transform="translate(-228.65 -26)"
       id="path1180" />
    <path
       class="cls-1"
       d="M387.92,293.13v.07l-.12-.11Z"
       transform="translate(-228.65 -26)"
       id="path1182" />
    <polygon
       class="cls-1"
       points="44.89 20.83 44.77 20.75 44.84 20.83 44.89 20.83"
       id="polygon1184" />
    <path
       class="cls-1"
       d="M273.49,46.83l.06.17v-.17Z"
       transform="translate(-228.65 -26)"
       id="path1186" />
    <path
       class="cls-1"
       d="M273.44,51.16l.11.16s-.09,0-.09-.07,0-.06,0-.09Z"
       transform="translate(-228.65 -26)"
       id="path1188" />
    <polygon
       class="cls-1"
       points="77.72 0.32 77.62 0.25 77.67 0.3 77.72 0.32"
       id="polygon1190" />
    <path
       class="cls-1"
       d="M310.64,28.83v0Z"
       transform="translate(-228.65 -26)"
       id="path1192" />
    <path
       class="cls-1"
       d="M310.63,28.84v0Z"
       transform="translate(-228.65 -26)"
       id="path1194" />
    <path
       class="cls-1"
       d="M348.86,74h0Z"
       transform="translate(-228.65 -26)"
       id="path1196" />
    <path
       class="cls-1"
       d="M349.14,74.31l-.28-.36h-.06l.28.36Z"
       transform="translate(-228.65 -26)"
       id="path1198" />
    <path
       class="cls-1"
       d="M363.31,74.18h0Z"
       transform="translate(-228.65 -26)"
       id="path1200" />
    <path
       class="cls-1"
       d="M305.46,216.18h0Z"
       transform="translate(-228.65 -26)"
       id="path1202" />
    <polygon
       class="cls-1"
       points="160.02 63.74 160.02 63.81 159.94 63.76 160.02 63.74"
       id="polygon1204" />
    <path
       class="cls-1"
       d="M389.29,100.64l-.2-.11.07,0,.08.09Z"
       transform="translate(-228.65 -26)"
       id="path1206" />
    <polygon
       class="cls-1"
       points="161.48 74.44 161.41 74.39 161.44 74.44 161.48 74.44"
       id="polygon1208" />
    <polygon
       class="cls-1"
       points="87.29 39.77 87.34 39.84 87.32 39.76 87.29 39.77"
       id="polygon1210" />
    <path
       class="cls-1"
       d="M370.29,265.21l-.06.14s0-.06,0-.07a.35.35,0,0,1,.11,0Z"
       transform="translate(-228.65 -26)"
       id="path1212" />
    <path
       class="cls-1"
       d="M370,285.59l-.24,0,.14.18h0l.11-.2Z"
       transform="translate(-228.65 -26)"
       id="path1214" />
    <polygon
       class="cls-1"
       points="157.14 231.53 157.13 231.47 157.2 231.51 157.14 231.53"
       id="polygon1216" />
    <path
       class="cls-1"
       d="M376.27,279.36l.08.11,0-.05-.1,0Z"
       transform="translate(-228.65 -26)"
       id="path1218" />
    <path
       class="cls-1"
       d="M389.66,270.81h.1l-.1,0Z"
       transform="translate(-228.65 -26)"
       id="path1220" />
    <path
       class="cls-1"
       d="m 137.80189,32.635823 c -0.08,-0.22 -0.2,-0.39 -0.15,-0.43 0.32,-0.28 0.18,-0.75 0.3,-1.1 a 7,7 0 0 0 0.19,-1.11 c 0.11,-0.59 0.3,-1.12 1.17,-1.21 0.48,0.43 0.23,0.74 0.21,1.05 a 2.42,2.42 0 0 1 -0.37,0.93 6.29,6.29 0 0 0 -0.72,1.58 c -0.03,0.15 -0.36,0.18 -0.63,0.29 z"
       id="path1092-6"
       style="fill:#ea5106" />
    <path
       class="cls-1"
       d="m 139.22189,28.215823 0.47,-0.23 c 0.23,0.23 0.14,0.36 -0.05,0.4 -0.19,0.04 -0.26,-0.06 -0.42,-0.17 z"
       id="path1150-2"
       style="fill:#ea5106" />
    <path
       class="cls-1"
       d="m 139.57189,26.455823 0.23,0.19 a 3.24,3.24 0 0 1 -0.33,-0.13 c 0,0 0,-0.07 0,-0.1 z"
       id="path1162-9"
       style="fill:#ea5106" />
    <path
       class="cls-1"
       d="m 139.60189,27.125823 h -0.27 a 0.25,0.25 0 0 1 0.12,0 z"
       id="path1180-1"
       style="fill:#ea5106" />
    <path
       class="cls-1"
       d="m 139.60189,27.135823 h 0.1 z"
       id="path1220-2"
       style="fill:#ea5106" />
    <path
       class="cls-1"
       d="M397.63,256.39l0,.07v0Z"
       transform="translate(-228.65 -26)"
       id="path1222" />
    <path
       class="cls-1"
       d="M321.37,65.72a1,1,0,0,1-.1-.28s.12,0,.19,0,.06.08.05.1l-.19.2Z"
       transform="translate(-228.65 -26)"
       id="path1224" />
    <path
       class="cls-1"
       d="M312,45.06c.09.23.2.45.27.67,0,0-.2,0-.41.05.08-.3.13-.51.19-.72Z"
       transform="translate(-228.65 -26)"
       id="path1226" />
    <path
       class="cls-1"
       d="M312,45.06l-.08-.15s.06.05.06.07,0,.05,0,.08Z"
       transform="translate(-228.65 -26)"
       id="path1228" />
    <path
       class="cls-1"
       d="m 31.125,196.66722 c 0.36,0.63 0.71,1.25 1.1,1.88 a 0.82,0.82 0 0 0 0.92,0.31 c 0.07,0 0.18,-0.06 0.18,-0.12 0,-0.69 0.81,-0.86 1.09,-1.36 1.05,0.47 1,0.47 1.06,1 a 5.63,5.63 0 0 1 -0.45,2.06 10.05,10.05 0 0 1 -0.71,1.5 2.08,2.08 0 0 0 0.42,0.7 c 0.91,0.76 1.1,1.45 0.89,2.09 -0.09,0.25 0.25,0.44 0.34,0.72 l -0.67,0.26 a 8.38,8.38 0 0 1 -2,-1 c -0.9,-0.51 -1,-0.5 -1.59,-0.08 a 0.44,0.44 0 0 1 -0.36,0 0.74,0.74 0 0 1 -0.34,-0.28 c -0.08,-0.15 -0.15,-0.36 -0.07,-0.44 a 2.41,2.41 0 0 0 0.44,-1.1 0.92,0.92 0 0 1 0.33,-0.38 0.61,0.61 0 0 0 0.23,-0.74 1.15,1.15 0 0 1 0.08,-0.61 c 0.14,-0.72 0,-1 -1.06,-1.69 l -0.61,-0.41 -0.22,-0.55 -0.26,-0.64 a 3.5,3.5 0 0 0 1.35,-1.2 z"
       id="path1074-3"
       style="fill:#ea5106" />
    <path
       class="cls-1"
       d="m 174.37,100.61 c 0.36,0.63 0.71,1.25 1.1,1.88 a 0.82,0.82 0 0 0 0.92,0.31 c 0.07,0 0.18,-0.06 0.18,-0.12 0,-0.69 0.81,-0.86 1.09,-1.36 1.05,0.47 1,0.47 1.06,1 a 5.63,5.63 0 0 1 -0.45,2.06 10.05,10.05 0 0 1 -0.71,1.5 2.08,2.08 0 0 0 0.42,0.7 c 0.91,0.76 1.1,1.45 0.89,2.09 -0.09,0.25 0.25,0.44 0.34,0.72 l -0.67,0.26 a 8.38,8.38 0 0 1 -2,-1 c -0.9,-0.51 -1,-0.5 -1.59,-0.08 a 0.44,0.44 0 0 1 -0.36,0 0.74,0.74 0 0 1 -0.34,-0.28 c -0.08,-0.15 -0.15,-0.36 -0.07,-0.44 a 2.41,2.41 0 0 0 0.44,-1.1 0.92,0.92 0 0 1 0.33,-0.38 0.61,0.61 0 0 0 0.23,-0.74 1.15,1.15 0 0 1 0.08,-0.61 c 0.14,-0.72 0,-1 -1.06,-1.69 l -0.61,-0.41 -0.22,-0.55 -0.26,-0.64 a 3.5,3.5 0 0 0 1.35,-1.2 z"
       id="path1074-3-5"
       style="fill:#ea5106" />
    <path
       class="cls-1"
       d="m 44.080425,225.61955 c 0.29,0.87 0.58,1.71 0.86,2.55 0.48,0.53 1.43,0.91 1.54,1.54 a 2.06,2.06 0 0 1 -1.36,0 7.51,7.51 0 0 0 -1.64,-0.25 c -0.55,0 -1,-0.3 -1,-0.71 a 9.74,9.74 0 0 1 0.22,-1.73 c 0.06,-0.37 0.39,-0.6 0.35,-1 -0.04,-0.4 0.43,-0.49 1.03,-0.4 z"
       id="path1084-6"
       style="fill:#ea5106" />
  </g>
  <metadata
     id="metadata928">
    <rdf:RDF>
      <cc:Work
         rdf:about="">
        <dc:title>pintura</dc:title>
      </cc:Work>
    </rdf:RDF>
  </metadata>
</svg>
