<?xml version="1.0" encoding="UTF-8" standalone="no"?>
<!-- Created with Inkscape (http://www.inkscape.org/) -->

<svg
   width="210mm"
   height="297mm"
   viewBox="0 0 210 297"
   version="1.1"
   id="svg983"
   inkscape:version="1.1.2 (0a00cf5339, 2022-02-04)"
   sodipodi:docname="shape.svg"
   xmlns:inkscape="http://www.inkscape.org/namespaces/inkscape"
   xmlns:sodipodi="http://sodipodi.sourceforge.net/DTD/sodipodi-0.dtd"
   xmlns="http://www.w3.org/2000/svg"
   xmlns:svg="http://www.w3.org/2000/svg">
  <sodipodi:namedview
     id="namedview985"
     pagecolor="#ffffff"
     bordercolor="#666666"
     borderopacity="1.0"
     inkscape:pageshadow="2"
     inkscape:pageopacity="0.0"
     inkscape:pagecheckerboard="0"
     inkscape:document-units="mm"
     showgrid="false"
     inkscape:zoom="0.60756173"
     inkscape:cx="397.49047"
     inkscape:cy="561.25984"
     inkscape:window-width="1920"
     inkscape:window-height="1056"
     inkscape:window-x="0"
     inkscape:window-y="0"
     inkscape:window-maximized="1"
     inkscape:current-layer="layer1" />
  <defs
     id="defs980" />
  <g
     inkscape:label="Capa 1"
     inkscape:groupmode="layer"
     id="layer1">
    <g
       id="g38582"
       transform="matrix(1.4107659,0,0,1.4107659,15.670775,-17.78344)">
      <g
         id="Capa_1"
         data-name="Capa 1">
        <path
           class="cls-2"
           d="m 303.07,209.1 c -1.66945,0.13178 -3.12355,-1.12874 -3.23,-2.8 l -2.82,-39 -62.67,-15 c -1.25073,-0.29374 -2.17558,-1.35128 -2.3,-2.63 l -1.26,-27.11 c -0.0893,-0.83505 0.17546,-1.66931 0.73,-2.3 0.5617,-0.61419 1.34807,-0.97491 2.18,-1 l 24.22,-4.88 c 4,-0.14 4.21,5.86 0.21,6 l -21,4.77 0.69,21.75 62.74,15.05 c 1.2881,0.29656 2.23033,1.40124 2.32,2.72 l 3,41.24 c 0.10835,1.65802 -1.15156,3.0883 -2.81,3.19 z"
           transform="translate(-228.65,-26)"
           id="path1231"
           style="fill:#636363;fill-opacity:1"
           sodipodi:nodetypes="cccccccccccccccc" />
        <rect
           class="cls-4"
           x="245.92999"
           y="98.370003"
           width="101.85"
           height="35.299999"
           rx="6.0500002"
           ry="6.0500002"
           transform="matrix(1,-0.07,0.07,1,-236.23,-4.33)"
           id="rect1235"
           style="fill:#ea5106;fill-opacity:1;stroke:#ce1906;stroke-width:0.24507;stroke-miterlimit:4;stroke-dasharray:none;stroke-opacity:1" />
        <path
           class="cls-5"
           d="m 350.21,117.77 a 1.08,1.08 0 0 1 -1,1.15 v 0 a 1.08,1.08 0 0 1 -1.15,-1 l -0.81,-11.13 a 1.08,1.08 0 0 1 1,-1.15 v 0 a 1.06,1.06 0 0 1 1.15,1 z"
           transform="translate(-228.65,-26)"
           id="path1166"
           style="stroke:none;fill:#565656;fill-opacity:1" />
      </g>
      <path
         style="fill:#636363;fill-opacity:1;stroke:none;stroke-width:0.377953;stroke-linecap:butt;stroke-linejoin:miter;stroke-miterlimit:4;stroke-dasharray:none;stroke-opacity:1"
         d="m 68.921491,143.57889 0.0427,-2.65101 -62.877055,-14.9431 -2.1764575,-2.00913 -0.1515989,-1.74238 0.4188375,1.57673 2.0468239,1.80012 63.260922,14.3054 z"
         id="path24569" />
      <path
         style="fill:#636363;fill-opacity:1;stroke:none;stroke-width:0.377953;stroke-linecap:butt;stroke-linejoin:miter;stroke-miterlimit:4;stroke-dasharray:none;stroke-opacity:1"
         d="m 68.921491,143.57889 0.0427,-2.65101 -62.877055,-14.9431 -2.1764575,-2.00913 -0.1515989,-1.74238 0.4188375,1.57673 2.0468239,1.80012 63.260922,14.3054 z"
         id="path24571" />
      <path
         style="fill:#636363;fill-opacity:1;stroke:none;stroke-width:0.377953;stroke-linecap:butt;stroke-linejoin:miter;stroke-miterlimit:4;stroke-dasharray:none;stroke-opacity:1"
         d="m 68.921491,143.57889 0.0427,-2.65101 -62.877055,-14.9431 -2.1764575,-2.00913 -0.1515989,-1.74238 0.4188375,1.57673 2.0468239,1.80012 63.260922,14.3054 z"
         id="path24573" />
      <path
         style="fill:#636363;fill-opacity:1;stroke:none;stroke-width:0.377953;stroke-linecap:butt;stroke-linejoin:miter;stroke-miterlimit:4;stroke-dasharray:none;stroke-opacity:1"
         d="m 68.921491,143.57889 0.0427,-2.65101 -62.877055,-14.9431 -2.1764575,-2.00913 -0.1515989,-1.74238 0.4188375,1.57673 2.0468239,1.80012 63.260922,14.3054 z"
         id="path24575" />
      <path
         style="fill:#636363;fill-opacity:1;stroke:none;stroke-width:0.377953;stroke-linecap:butt;stroke-linejoin:miter;stroke-miterlimit:4;stroke-dasharray:none;stroke-opacity:1"
         d="m 68.921491,143.57889 0.0427,-2.65101 -62.877055,-14.9431 -2.1764575,-2.00913 -0.1515989,-1.74238 0.4188375,1.57673 2.0468239,1.80012 63.260922,14.3054 z"
         id="path24577" />
      <path
         style="fill:#636363;fill-opacity:1;stroke:none;stroke-width:0.377953;stroke-linecap:butt;stroke-linejoin:miter;stroke-miterlimit:4;stroke-dasharray:none;stroke-opacity:1"
         d="m 68.921491,143.57889 0.0427,-2.65101 -62.877055,-14.9431 -2.1764575,-2.00913 -0.1515989,-1.74238 0.4188375,1.57673 2.0468239,1.80012 63.260922,14.3054 z"
         id="path24579" />
      <path
         style="fill:#636363;fill-opacity:1;stroke:none;stroke-width:0.377953;stroke-linecap:butt;stroke-linejoin:miter;stroke-miterlimit:4;stroke-dasharray:none;stroke-opacity:1"
         d="m 68.921491,143.57889 0.0427,-2.65101 -62.877055,-14.9431 -2.1764575,-2.00913 -0.1515989,-1.74238 0.4188375,1.57673 2.0468239,1.80012 63.260922,14.3054 z"
         id="path24581" />
      <path
         style="fill:#636363;fill-opacity:1;stroke:none;stroke-width:0.377953;stroke-linecap:butt;stroke-linejoin:miter;stroke-miterlimit:4;stroke-dasharray:none;stroke-opacity:1"
         d="m 68.921491,143.57889 0.0427,-2.65101 -62.877055,-14.9431 -2.1764575,-2.00913 -0.1515989,-1.74238 0.4188375,1.57673 2.0468239,1.80012 63.260922,14.3054 z"
         id="path24583" />
      <g
         id="path23634"
         style="opacity:0.135;stroke:#000002;stroke-opacity:1">
        <path
           style="color:#000000;fill:#636363;stroke:#000002;stroke-width:0.377953;stroke-opacity:1;-inkscape-stroke:none"
           d="m 68.921491,143.57889 0.0427,-2.65101 -62.877055,-14.9431 -2.1764575,-2.00913 -0.1515989,-1.74238 0.4188375,1.57673 2.0468239,1.80012 63.260922,14.3054 z"
           id="path24795" />
        <path
           style="color:#000000;fill:#930000;stroke:#000002;stroke-opacity:1;-inkscape-stroke:none"
           d="m 3.9414063,122.18555 -0.3710938,0.0644 0.1582031,1.81445 2.2675781,2.0918 62.7350443,14.82838 0.343994,4.87939 0.185926,0.0284 v 0 l 0.43815,-6.12298 L 6.3125,125.43555 4.3457031,123.70508 Z m 2.2109374,3.60156 63.1191403,14.27344 -0.115234,0.75195 v -0.0332 L 6.1796875,125.8125 Z"
           id="path24797"
           sodipodi:nodetypes="cccccccscccccccccc" />
      </g>
      <path
         id="rect31319"
         style="fill:#706867;fill-opacity:1"
         class="cls-3"
         transform="rotate(-4.13)"
         d="m 59.619676,146.97433 h 3.229999 c 3.3517,0 6.071781,2.69837 6.05,6.05 l -0.288079,44.32961 c -0.02178,3.35163 -2.6983,6.05 -6.05,6.05 h -3.229999 c -3.3517,0 -6.071782,-2.69837 -6.050001,-6.05 l 0.288079,-44.32961 c 0.02178,-3.35163 2.698301,-6.05 6.050001,-6.05 z"
         sodipodi:nodetypes="sssssssss" />
      <path
         class="cls-5"
         d="m 69.398357,191.71816 c 0.0631,0.97279 1.331978,1.81537 0.36,1.89 v 0 c -0.974673,0.0687 -1.820655,-0.66537 -1.89,-1.64 l -3.17,-43.92 c -0.0631,-0.97279 0.668022,-1.81537 1.64,-1.89 v 0 c 0.971048,-0.0689 -0.184561,0.65937 -0.11,1.63 z"
         id="path1237"
         style="fill:#565656;fill-opacity:1"
         sodipodi:nodetypes="cssccsscc" />
    </g>
  </g>
</svg>
