<?xml version="1.0" encoding="UTF-8" standalone="no"?>
<!-- Created with Inkscape (http://www.inkscape.org/) -->

<svg
   width="310mm"
   height="297mm"
   viewBox="0 0 310 297"
   version="1.1"
   id="svg3569"
   xmlns:xlink="http://www.w3.org/1999/xlink"
   xmlns="http://www.w3.org/2000/svg"
   xmlns:svg="http://www.w3.org/2000/svg">
 
  <g
     id="layer1"
     style="display:inline">
    <path
       style="fill:#ea5106;fill-opacity:1;stroke:none;stroke-width:0.203976px;stroke-linecap:butt;stroke-linejoin:miter;stroke-opacity:1"
       d="m 128.71726,134.38418 c -28.56343,17.01915 -42.690665,53.733 -50.406715,86.07467 -1.243067,5.03193 -2.176224,10.04174 -2.570385,14.84852 -0.314613,3.94286 -0.360129,7.90564 -0.350041,11.86101 0.01011,3.96303 0.324234,7.91992 0.41133,11.88199 0.08908,4.05238 0.436529,8.11905 0.113735,12.15953 -0.315292,3.94658 -0.602333,8.00267 -1.995345,11.70866 -0.829674,2.20728 -2.171347,4.23382 -3.699336,6.02984 -1.526136,1.79385 -3.368905,3.34264 -5.35269,4.61211 -1.749007,1.11924 -3.642283,2.13106 -5.669281,2.58162 -1.931077,0.42923 -4.061201,0.69629 -5.934315,0.0601 -3.288996,-1.11708 -6.015969,-3.72911 -8.200335,-6.42984 -2.262671,-2.79755 -3.94024,-6.1904 -4.737285,-9.69905 -1.082207,-4.76396 -0.464661,-9.80433 0.111359,-14.65559 0.598246,-5.03845 2.293618,-9.88508 3.451896,-14.82495 0.810557,-3.45689 1.550347,-6.93152 2.447716,-10.3669 1.377569,-5.27371 3.5547,-12.29768 4.505566,-15.71904 3.642013,-13.10451 6.498458,-20.37613 9.131056,-31.91002 2.632598,-11.53389 3.004637,-21.97409 -2.395585,-30.70386 C 46.778161,144.43345 17.096972,161.36514 8.5708754,146.51817 0.70237942,132.81632 29.282398,121.59852 29.282398,121.59852 c 0,0 14.709693,-5.73466 19.20788,-11.74107 C 58.054294,97.086703 62.950847,79.473643 60.955208,63.643907 58.148129,41.377701 17.860102,16.692999 27.83693,5.0251972 37.813757,-6.6426048 55.959372,20.843623 70.454437,27.9051 c 8.814344,4.294034 17.286959,10.056423 26.92967,11.831109 4.988043,0.918023 10.375763,0.816606 15.196493,-0.759448 13.83715,-4.523812 22.02023,-25.670683 36.48284,-24.008052 23.39444,2.689432 14.15074,22.231716 24.01463,30.679296 2.10456,1.802378 4.52427,3.590887 7.25578,4.056278 8.10497,1.380915 16.3535,-6.335803 24.30033,-4.227394 3.96,1.050646 7.95144,4.028107 9.4722,7.83242 2.71125,6.782458 -2.76052,9.915517 -1.99412,20.690044 0.76639,10.774526 17.89148,12.08874 18.73252,21.408298 0.59555,6.599199 -9.69915,10.107139 -10.89925,16.623579 -2.37098,12.87416 3.45381,26.24671 8.42031,38.35866 4.39604,10.72075 11.13643,20.48871 18.52915,29.41101 16.49882,19.91247 60.73603,27.27287 56.8084,52.83243 -0.72519,4.7193 -8.15972,6.22145 -12.93395,6.15563 -6.62857,-0.0914 -12.27221,-5.25398 -17.71516,-9.03825 -6.86336,-4.77183 -12.65003,-10.9635 -18.46303,-16.97058 -5.39443,-5.57454 -10.18903,-11.70089 -15.1776,-17.64139 -4.15577,-4.94879 -8.06862,-10.1005 -12.28902,-14.9943 -4.08165,-4.73291 -7.77044,-9.9169 -12.59716,-13.88716 -16.41387,-13.5014 -34.03229,-27.57459 -54.60117,-32.92474 -10.07371,-2.62027 -22.26709,-4.27627 -31.20904,1.05168 z"
       id="path3916" />
  </g>
</svg>
