<?xml version="1.0" encoding="UTF-8" standalone="no"?>
<svg
   xmlns:dc="http://purl.org/dc/elements/1.1/"
   xmlns:cc="http://creativecommons.org/ns#"
   xmlns:rdf="http://www.w3.org/1999/02/22-rdf-syntax-ns#"
   xmlns:svg="http://www.w3.org/2000/svg"
   xmlns="http://www.w3.org/2000/svg"
   xmlns:sodipodi="http://sodipodi.sourceforge.net/DTD/sodipodi-0.dtd"
   xmlns:inkscape="http://www.inkscape.org/namespaces/inkscape"
   width="310mm"
   height="297mm"
   viewBox="0 0 310 297"
   version="1.1"
   id="svg3569"
   sodipodi:docname="shape1.svg"
   inkscape:version="1.0.2 (e86c870879, 2021-01-15)">
  <metadata
     id="metadata9">
    <rdf:RDF>
      <cc:Work
         rdf:about="">
        <dc:format>image/svg+xml</dc:format>
        <dc:type
           rdf:resource="http://purl.org/dc/dcmitype/StillImage" />
      </cc:Work>
    </rdf:RDF>
  </metadata>
  <defs
     id="defs7">
    <linearGradient
       id="SVGID_00000090280735061035197900000018369050016770267541_"
       gradientUnits="userSpaceOnUse"
       x1="79.145897"
       y1="315.46869"
       x2="79.145897"
       y2="445.13681"
       gradientTransform="matrix(2.0794846,0,0,2.0794846,-7.775111,-613.35272)">
      <stop
         offset="0"
         style="stop-color:#684484"
         id="stop50" />
      <stop
         offset="1"
         style="stop-color:#523E7A"
         id="stop52" />
    </linearGradient>
  </defs>
  <sodipodi:namedview
     pagecolor="#ffffff"
     bordercolor="#666666"
     borderopacity="1"
     objecttolerance="10"
     gridtolerance="10"
     guidetolerance="10"
     inkscape:pageopacity="0"
     inkscape:pageshadow="2"
     inkscape:window-width="1920"
     inkscape:window-height="1011"
     id="namedview5"
     showgrid="false"
     inkscape:zoom="0.25008149"
     inkscape:cx="116.29002"
     inkscape:cy="1159.0453"
     inkscape:window-x="0"
     inkscape:window-y="0"
     inkscape:window-maximized="1"
     inkscape:current-layer="layer1" />
  <g
     inkscape:groupmode="layer"
     id="layer1"
     inkscape:label="Layer 1">
    <path
       style="fill:#ea5106;stroke-width:2.07948;fill-opacity:1"
       d="m 115.93342,105.23187 c 4.16729,4.97206 3.51641,12.38338 -1.45772,16.55063 -4.97413,4.16733 -12.38333,3.5164 -16.550611,-1.4577 -1.318398,-1.57417 -2.152274,-3.39372 -2.522419,-5.27566 v 0.002 C 92.624487,100.96457 77.672994,92.925271 64.391321,98.371411 56.607802,101.58837 47.322913,99.579642 41.6272,92.781757 34.594385,84.391067 35.694433,71.88712 44.08515,64.85219 c 8.390718,-7.034855 20.894665,-5.932721 27.929558,2.457969 3.011095,3.593348 4.520802,7.941602 4.616456,12.29182 l 0.01024,-0.0157 c 0.332689,14.365066 13.712122,24.841501 27.738246,21.722321 l -0.004,0.007 c 4.14233,-0.915 8.64234,0.44091 11.55778,3.91771 z m 155.56829,10.49727 c -1.52419,-5.94735 -7.5818,-9.53237 -13.52906,-8.0081 -10.21652,2.6202 -20.61602,37.50972 -35.1995,28.94847 -6.07002,-3.56419 3.22113,-11.80933 -3.15455,-14.58128 -7.37596,-3.20659 -3.73474,10.45773 -10.18116,8.3969 -8.36991,-2.67622 4.95956,-27.50947 7.00161,-30.865786 2.46001,-4.046684 6.01808,-8.122449 5.20085,-13.337758 -1.97343,-12.578839 -16.61924,-3.801302 -20.58693,3.364566 -2.36854,4.277516 0.24333,14.310998 -4.36068,16.766918 -3.26479,1.7426 -5.93485,-2.80315 -9.09567,-0.86926 -3.12754,1.9152 -2.44547,8.65689 -5.62293,11.01293 -5.5439,4.08205 -7.67953,-9.11015 -12.4769,-3.41659 -3.84497,4.56242 6.74585,13.17357 2.70124,18.10821 -9.4055,11.48081 -15.35075,-24.56501 -15.83319,-28.13548 -1.81747,-13.491645 -0.97944,-29.002542 -5.13217,-42.032602 -2.55568,-8.014304 -8.12246,-31.61857 -18.77982,-33.342462 -14.08435,-2.279087 -14.04068,23.462875 -12.65991,31.358657 3.03398,17.363688 14.45867,32.001168 24.44019,45.885857 -10.4702,-9.673747 0.76111,11.52662 3.15458,14.58553 2.57025,3.28353 5.89741,10.59291 2.69293,14.41293 -4.85767,5.79133 -9.69871,-1.38704 -13.32118,-4.09242 -2.03166,-1.51594 -5.45864,-4.05503 -7.86045,-0.705 -2.39349,3.3376 1.5305,4.61233 2.25416,7.10354 1.09798,3.77632 4.48545,4.40642 -0.42009,6.59614 -4.00716,1.79046 -14.26734,-2.62428 -17.52797,-5.0802 -3.5684,-2.68872 -13.730838,-10.31839 -17.238928,-3.59335 -6.535818,12.53727 25.394668,11.16893 21.886578,24.21353 -5.03236,-3.28353 -9.10191,-2.9965 -7.10144,2.94251 2.0067,5.96187 9.71535,4.53326 3.10467,11.59727 -9.03328,9.65088 -26.04971,-0.38433 -36.811042,0.1454 -11.360221,0.56117 -33.556638,14.20285 -21.183705,27.82347 9.361839,10.3018 26.619478,3.07352 37.301792,-0.80677 4.030036,-1.46399 22.662225,-10.92774 21.788845,0.23499 -0.40759,5.21122 -9.46999,6.83114 -1.05846,10.12708 6.42561,2.51621 11.56817,-4.94289 13.99493,4.98456 1.82994,7.4841 -6.04507,12.10468 -5.79344,18.46787 0.4887,12.36672 8.4739,-1.84242 11.59104,-4.0716 3.39165,-2.42677 10.22691,-3.4353 12.4374,1.0439 2.09404,4.24631 -2.93,9.3868 -5.21327,12.42699 -4.75162,6.33206 -17.58621,15.41109 -14.0178,24.82697 6.23845,16.46951 31.41684,1.30797 29.23963,-13.75368 -0.54277,-3.75353 -5.08642,-38.42683 8.54044,-30.38133 6.46927,3.82001 -2.26456,18.2309 3.51848,20.14194 10.54924,3.4852 0.80685,-15.33831 1.10837,-17.14748 1.90897,-11.44339 8.31586,4.52705 11.14188,5.09891 2.71373,0.54937 -1.01479,-10.11876 7.44664,-2.54734 7.18877,6.4318 13.79322,16.47157 16.99979,25.53605 2.6077,7.36763 4.13613,20.46425 13.30876,22.71009 11.32903,2.77401 -3.5726,-18.16016 -5.75816,-21.60796 -1.33085,-2.10029 -5.87244,-8.25967 -2.42261,-10.61579 3.45613,-2.3602 8.00189,5.56263 9.71958,7.43625 6.52745,7.11808 21.23565,13.81403 29.3581,5.09686 9.64883,-10.35588 -3.75132,-23.36926 -11.73866,-29.15234 -10.30802,-7.46327 -31.99079,-11.46414 -35.51138,-24.89763 -2.0878,-7.97279 6.04301,-9.85884 11.28747,-5.83715 3.23149,2.4788 11.79486,11.30412 11.66589,-0.47235 -0.0236,-2.28537 -3.41864,-5.84956 -5.60207,-9.30569 -2.10445,-3.33132 -3.08603,-6.55865 1.16446,-8.44059 6.22807,-2.74909 15.0534,15.89766 21.65574,17.49053 10.56171,2.5515 17.61535,-11.13773 15.52544,-19.84665 -2.49955,-10.41191 -13.71832,-15.21554 -22.26917,-19.99008 -3.97596,-2.22086 -4.33577,-6.54199 -4.21512,-8.77125 0.77966,-13.56034 13.74951,-23.0365 26.90642,-19.65316 1.75722,0.45349 3.64955,0.4865 5.53354,0.004 5.94734,-1.52631 9.53236,-7.58384 8.00597,-13.53117 z M 81.301693,241.14906 c -8.448955,-1.06048 -16.157601,4.93048 -17.218135,13.3794 -1.060544,8.44901 4.928373,16.15766 13.377318,17.21814 8.448945,1.06056 16.1576,-4.93041 17.218132,-13.37941 1.062621,-8.44893 -4.926293,-16.15758 -13.377315,-17.21813 z m 19.879867,-10.30173 c -2.981981,-0.37411 -5.701949,1.74056 -6.076257,4.72253 -0.374262,2.98195 1.740529,5.70196 4.722505,6.07623 2.981992,0.37411 5.701952,-1.74056 6.076262,-4.72252 0.37426,-2.98196 -1.74053,-5.70401 -4.72251,-6.07624 z M 156.43762,46.709008 c -3.17536,-3.347976 -12.82002,-11.250046 -7.76271,-16.623409 4.75578,-5.053174 8.85652,5.766414 10.49307,8.548745 4.86808,8.280504 6.00556,-3.653635 11.54531,-0.996114 2.83225,1.360008 2.30615,4.583174 6.09289,2.570288 1.14579,-0.609116 2.13355,-1.904824 3.56839,-1.576299 1.58249,0.363895 2.66382,3.088064 3.24815,4.352418 2.26249,4.899198 0.81308,8.357444 -2.37061,12.250238 -1.08133,1.322515 -3.76595,3.067235 -3.58087,4.982437 0.19546,2.01501 1.90689,1.364162 3.27103,2.069082 1.34335,0.69242 2.86968,2.659645 2.58272,4.287893 -0.62176,3.522611 -5.90573,1.719729 -7.8147,3.22529 -2.38933,1.883987 1.45148,4.04456 2.70957,5.073918 1.91312,1.565838 4.97205,5.718628 0.24953,5.385854 -2.8676,-0.203555 -4.945,-2.405935 -6.43601,-4.664278 -0.75065,-1.135379 -1.1749,-2.576491 -1.96511,-3.651594 -1.08756,-1.48056 -1.3974,-1.216484 -3.30014,-1.705104 -3.89903,-1.002326 -3.31053,-6.71883 -3.57879,-9.675871 -0.44705,-4.949192 -3.56632,-10.270597 -6.92677,-13.822374 -0.008,-0.0157 -0.0165,-0.02359 -0.0252,-0.03139 z m 75.28983,-8.7193 c 5.57928,-0.09352 4.26918,6.841507 -0.38433,7.072348 -5.17169,0.257789 -5.02817,-6.980866 0.38433,-7.072348 z m -36.32444,39.730643 c -4.93462,1.565838 -6.63772,-5.473256 -1.42861,-6.937161 0.94409,-0.266436 1.72805,-0.256219 2.37061,-0.07077 -0.89002,-0.679844 -1.46812,-1.773802 -1.30591,-3.106768 0.24954,-2.056592 1.76756,-2.222974 3.29806,-2.489099 1.33503,-0.232636 2.67838,-0.540729 3.20241,-2.241678 0.61139,-1.98388 0.99399,-4.096584 2.6659,-5.529369 0.82344,-0.704995 2.81975,-1.800842 3.26891,-0.183122 0.35525,1.287137 -1.81121,2.88214 -2.48909,3.69937 -0.89834,1.087595 -1.14371,1.701025 -1.2352,3.0714 -0.15404,2.320667 -1.35794,5.687348 -3.47485,6.984946 -0.94201,0.578456 -1.98175,0.646834 -2.88841,0.357606 1.82371,1.595003 1.17908,5.439936 -1.98382,6.444377 z m 18.80474,-35.245247 c 3.27519,-0.544658 7.09521,2.48297 9.03124,4.836883 1.08963,1.324629 2.60141,3.959357 1.49306,5.614646 -1.84038,2.746962 -8.88143,2.697053 -11.85719,2.146023 -1.69481,-0.31438 -4.95956,-0.85055 -4.4439,-3.16288 0.0472,-0.201996 0.11397,-0.395334 0.19963,-0.580036 0.75294,-1.609534 2.88427,-2.657596 3.15251,-4.57696 0.27822,-1.98593 -0.0856,-3.861589 2.42465,-4.277517 z m 49.11123,181.193856 c -5.92447,-5.17585 -16.03284,-14.0095 -24.24261,-12.18791 1.05843,5.16343 3.79714,10.55967 8.64855,13.12988 2.74076,1.45148 6.30912,-0.3246 9.14976,1.59499 2.94244,1.98798 2.77401,7.03698 5.90569,8.82532 11.26875,6.43188 5.45039,-7.07022 0.53837,-11.36228 z m 8.43855,-47.83021 c -0.35367,1.77381 0.33718,3.69104 2.64716,5.33799 5.93483,4.22966 20.04832,-5.99096 8.6715,-10.5118 -4.76622,-1.89233 -10.54301,1.29343 -11.31866,5.17381 z m 3.81373,-34.46959 c -6.78327,0.96907 -13.50618,2.47047 -20.22084,3.44992 -0.0472,0.007 -13.53542,2.91539 -10.22282,3.79297 7.23662,1.9152 20.30416,-1.32046 28.00448,-1.78834 8.84819,-0.53837 17.71721,-0.54938 26.42605,-2.45176 10.71355,-2.34149 12.44782,-12.43321 -0.31438,-8.8856 -8.56329,2.38094 -14.58136,4.58317 -23.67288,5.88281 z M 64.836329,131.0591 c 4.161052,-1.84657 6.02219,-4.51251 6.284208,-7.38632 0.985671,-10.85283 -20.855161,-24.68557 -28.002344,-8.65689 -4.917978,11.02958 12.984306,19.91731 21.718136,16.04321 z m -48.905318,0.47 c -4.454261,-5.54383 -14.1966398,-0.95233 -9.0852732,5.85798 4.9595772,6.60651 14.0344432,0.30181 9.0852732,-5.85798 z m 62.810826,18.48249 c -0.453335,-1.38075 -1.47227,-2.60353 -3.027721,-3.25021 -3.501849,-1.45361 -8.742159,0.0708 -11.747013,1.96298 -1.775878,1.11676 -2.755318,1.36001 -4.901341,1.22482 -1.617843,-0.10217 -5.531437,-1.35167 -6.801993,0.23894 -1.59913,2.00251 1.545047,3.48936 3.152494,3.87409 3.266872,0.78602 6.221826,-0.63662 9.220439,-1.65733 2.570241,-0.87547 4.154802,0.50929 5.637477,1.94844 1.703102,1.65323 3.268949,3.38122 6.032585,1.84658 1.790438,-0.99399 2.624314,-2.68668 2.667982,-4.39604 0.345191,0.96075 1.037667,1.9402 2.210492,2.86761 6.477594,5.12807 13.649738,-3.28141 7.294833,-7.97893 -4.071629,-3.00908 -9.401352,-0.36154 -9.738234,3.31882 z m -43.20544,4.17354 c 2.611822,-1.38704 5.816313,0.30809 8.480131,-0.20199 0.305648,-0.055 0.605103,-0.1454 0.896257,-0.27272 3.323022,-1.43279 1.060535,-5.94947 -0.07068,-8.3242 -1.983833,-4.1715 -8.22645,-12.91571 -13.271277,-12.73062 -3.038124,0.1124 -4.938772,4.33984 -5.600052,6.87271 -1.174904,4.50002 -1.495146,11.93414 2.110677,15.49425 2.761558,2.7262 4.751622,0.59653 7.454954,-0.83806 z m 25.974833,70.61513 c -0.781852,2.58898 -0.488695,4.159 0.426304,4.93668 3.460258,2.94251 15.799919,-5.37964 12.645338,-12.70145 -2.168901,-5.03862 -11.428844,2.33105 -13.071642,7.76477 z m -12.025657,-2.40389 c -0.744444,-1.08131 -4.237983,-0.24759 -3.786743,1.94222 0.528152,2.57233 3.572557,-2.25205 3.786743,-1.94222 z m 14.508562,-9.86718 c -3.110904,1.66778 -5.862067,2.66593 -9.012485,3.63705 -0.981516,0.30337 -8.016409,2.14398 -7.143029,3.84084 1.228976,2.3914 12.820029,-4.32538 15.24262,-5.27779 2.740759,-1.07714 6.099131,-2.41215 8.694326,-4.48752 -1.432765,-1.21853 -5.741449,1.19362 -7.781432,2.28742 z m -16.109768,-3.16493 c 2.489146,1.59084 6.966279,-3.3189 4.084111,-5.36928 -2.794832,-1.99002 -6.849815,3.60169 -4.084111,5.36928 z m -31.74541,6.65847 c 0.126851,0.70499 0.536486,1.24768 1.249773,1.40158 1.601202,0.34503 4.248388,-1.18529 5.83711,-2.62428 0.937847,-0.85048 1.430691,-1.11251 2.464195,-1.32048 0.777694,-0.15561 2.593114,0.0236 3.318859,-1.02314 0.912894,-1.31834 -0.513617,-1.72798 -1.266413,-1.73215 -1.532581,-0.007 -3.06308,1.16659 -4.58942,2.1252 -1.307997,0.82139 -1.983832,0.26173 -2.605594,-0.33874 -0.713248,-0.69242 -1.357905,-1.44316 -2.803144,-0.23107 -0.935771,0.78438 -1.457719,1.83 -1.594969,2.78242 -0.101859,-0.48651 -0.372224,-0.93788 -0.877541,-1.29761 -2.79691,-1.98797 -6.8498194,3.60372 -4.084111,5.3692 1.769646,1.13334 4.537437,-1.02935 4.951255,-3.11093 z m 20.890501,-12.78257 c -1.191539,1.39537 -2.848895,1.40158 -4.117384,2.37065 -0.145554,0.1124 -0.286945,0.235 -0.420007,0.37647 -1.534661,1.60742 -0.172595,3.26892 0.515736,4.15892 1.208185,1.56168 4.751624,4.27956 7.197102,2.83852 1.47227,-0.86925 2.154351,-3.49982 2.329023,-4.94714 0.311946,-2.57225 0.03769,-6.38817 -1.923519,-7.20957 -1.501389,-0.6319 -2.347746,0.96908 -3.580876,2.41223 z m 252.341312,1.5763 c 2.90084,-0.235 2.8239,-3.37918 5.049,-4.394 2.44963,-1.11462 15.15738,4.78076 11.41218,-3.57048 -2.9154,-6.50253 -13.20053,-1.19982 -18.2849,-2.13769 -2.57437,-0.47392 -11.89255,-3.48937 -14.20913,-1.60742 -3.34798,2.71788 5.61669,4.89512 7.18049,5.95771 2.32483,1.58455 5.72484,6.00551 8.85236,5.75188 z m 16.07025,3.81168 c -0.6319,-2.40806 -0.58631,-2.06287 -2.73871,-3.07973 -2.05454,-0.96907 -9.62172,-4.29834 -7.40707,0.97111 0.81927,1.9464 2.89464,2.18761 4.3877,3.35631 1.29131,1.01269 2.62427,4.33985 4.13196,4.78281 3.64946,1.0688 2.12519,-4.12984 1.62612,-6.0305 z"
       id="path55" />
  </g>
</svg>
