<?xml version="1.0" encoding="UTF-8" standalone="no"?>
<!-- Created with Inkscape (http://www.inkscape.org/) -->

<svg
   version="1.1"
   id="svg929"
   width="375"
   height="533.3335"
   viewBox="0 0 375 533.3335"
   sodipodi:docname="shape2.svg"
   inkscape:version="1.1.2 (0a00cf5339, 2022-02-04)"
   xmlns:inkscape="http://www.inkscape.org/namespaces/inkscape"
   xmlns:sodipodi="http://sodipodi.sourceforge.net/DTD/sodipodi-0.dtd"
   xmlns="http://www.w3.org/2000/svg"
   xmlns:svg="http://www.w3.org/2000/svg">
  <sodipodi:namedview
     id="namedview6"
     pagecolor="#ffffff"
     bordercolor="#666666"
     borderopacity="1.0"
     inkscape:pageshadow="2"
     inkscape:pageopacity="0.0"
     inkscape:pagecheckerboard="0"
     showgrid="false"
     inkscape:zoom="5.1149984"
     inkscape:cx="148.38714"
     inkscape:cy="265.59148"
     inkscape:window-width="1920"
     inkscape:window-height="1029"
     inkscape:window-x="0"
     inkscape:window-y="27"
     inkscape:window-maximized="1"
     inkscape:current-layer="svg929" />
  <defs
     id="defs933" />
  <g
     id="layer3"
     transform="matrix(1.0793141,0,0,1.0793141,-26.087476,-36.218147)">
    <path
       style="fill:#ea5106;fill-opacity:1;stroke:none;stroke-width:0.272062px;stroke-linecap:butt;stroke-linejoin:miter;stroke-opacity:1"
       d="m 122.44502,415.90392 c -7.22157,1.04238 -14.88597,-4.53079 -19.28774,-10.3499 -6.066333,-8.0196 -5.799033,-19.42812 -6.492573,-29.45976 -0.59179,-8.55989 1.0307,-17.13877 2.02806,-25.66092 1.28533,-10.98283 3.480463,-21.84047 5.092813,-32.78007 1.12479,-7.63134 2.53981,-15.23379 3.19572,-22.91966 0.4692,-5.49797 0.61339,-11.02825 0.52522,-16.54548 -0.08,-5.00399 0,-7.88831 -0.95559,-14.98345 -3.67358,-27.26247 -14.963203,-60.70302 -36.686363,-73.92396 -45.15605,-27.19609 -40.14826,-46.26849 2.62946,-72.44411 4.46753,-2.6924 8.19674,-5.38807 12.471,-7.78505 C 124.37747,86.949269 135.74028,7.5476492 206.18517,48.36924 c 2.20139,1.258994 4.68891,2.730524 7.07881,4.013487 2.26258,1.214595 4.43758,2.662972 6.87014,3.485987 2.04009,0.690222 4.21106,0.953224 6.35328,1.175308 2.88636,0.299242 5.64529,-0.106893 8.70307,0.206115 123.79589,-11.832119 45.06421,83.927743 74.37349,121.168583 73.49676,93.38617 10.82435,124.90245 -0.91676,52.48803 -0.32264,-1.99653 -1.07122,-6.33364 -1.68739,-9.16249 C 274.8465,74.315697 191.2171,194.80271 258.50669,327.22801 c 27.18948,44.35419 102.35547,131.12357 67.31862,187.55483 -7.99859,12.88274 -32.31453,15.67599 -45.19143,5.21698 -11.68423,-9.49028 -15.45092,-26.55982 -16.74425,-41.93936 -4.60272,-54.73264 -16.18335,-120.43255 -27.765,-162.42151 -1.76873,-6.35442 -4.08311,-16.53559 -5.31093,-19.0619 -9.90635,-22.04234 -12.88161,-43.54116 -30.1219,-53.86993 -22.1312,-13.25894 -41.1866,-5.98603 -53.49993,3.12496 -4.68401,3.46584 -11.14652,8.98563 -13.64269,14.51116 -9.81973,23.3129 9.35926,32.32839 3.79684,47.04483 -0.28278,0.74814 -1.03092,1.27159 -1.72669,1.66602 -0.77329,0.4384 -1.68603,0.72701 -2.57437,0.69583 -2.52215,-0.0885 -5.00191,-1.09456 -7.15232,-2.48306 -1.3432,-0.87275 -2.00613,-1.90623 -3.50394,-2.47408 -1.25633,-0.36355 -2.37178,0.39901 -3.10363,1.23878 -2.37198,2.72179 -4.08148,7.21762 -2.60219,10.51376 0.69082,1.53844 1.55562,2.71984 2.69937,4.2789 29.03349,33.74256 39.06385,89.88329 3.06277,95.0797 z"
       id="path1030"
       sodipodi:nodetypes="ssssssscccccssscscccassccsscsssccsccs" />
  </g>
</svg>
